<?xml version="1.0" encoding="utf-8"?>
<svg width="18px" height="18px" viewBox="0 0 18 18" version="1.1" xmlns:xlink="http://www.w3.org/1999/xlink" xmlns="http://www.w3.org/2000/svg">
  <desc>Created with Lunacy</desc>
  <g id="îœ" fill="#FFFFFF">
    <path d="M15.75 8.4375Q15.75 8.66602 15.583 8.83301Q15.416 9 15.1875 9L9 9L9 15.1875Q9 15.416 8.83301 15.583Q8.66602 15.75 8.4375 15.75Q8.20898 15.75 8.04199 15.583Q7.875 15.416 7.875 15.1875L7.875 9L1.6875 9Q1.45898 9 1.29199 8.83301Q1.125 8.66602 1.125 8.4375Q1.125 8.20899 1.29199 8.04199Q1.45898 7.875 1.6875 7.875L7.875 7.875L7.875 1.6875Q7.875 1.45899 8.04199 1.29199Q8.20898 1.125 8.4375 1.125Q8.66602 1.125 8.83301 1.29199Q9 1.45899 9 1.6875L9 7.875L15.1875 7.875Q15.416 7.875 15.583 8.04199Q15.75 8.20899 15.75 8.4375Z" />
  </g>
</svg>