<?xml version="1.0" encoding="utf-8"?>
<svg width="18px" height="18px" viewBox="0 0 18 18" version="1.1" xmlns:xlink="http://www.w3.org/1999/xlink" xmlns="http://www.w3.org/2000/svg">
  <desc>Created with Lunacy</desc>
  <g id="î¤" fill="#FFFFFF">
    <path d="M0 9Q0 7.75195 0.320801 6.60059Q0.641602 5.44922 1.22607 4.45166Q1.81055 3.4541 2.63232 2.63232Q3.4541 1.81055 4.45166 1.22607Q5.44922 0.641603 6.60059 0.320801Q7.75195 1.90735e-06 9 0Q10.2568 0 11.4126 0.325195Q12.5684 0.650393 13.5659 1.23926Q14.5635 1.82813 15.3853 2.6543Q16.207 3.48047 16.7871 4.48682Q17.3672 5.49316 17.6836 6.65332Q18 7.81348 18 9.06152Q18 9.57129 17.9297 10.1426Q17.8594 10.7139 17.7012 11.2676Q17.543 11.8213 17.2881 12.3267Q17.0332 12.832 16.6641 13.2188Q16.2949 13.6055 15.8027 13.834Q15.3105 14.0625 14.6777 14.0625Q14.0977 14.0625 13.6274 13.8911Q13.1572 13.7197 12.7837 13.4077Q12.4102 13.0957 12.1377 12.6606Q11.8652 12.2256 11.6807 11.707Q11.127 12.6211 10.2788 13.0605Q9.43066 13.5 8.37598 13.5Q7.45313 13.5 6.72803 13.1309Q6.00293 12.7617 5.51074 12.1509Q5.01855 11.54 4.75928 10.7402Q4.5 9.94043 4.5 9.0791Q4.5 8.17383 4.73291 7.34766Q4.96582 6.52148 5.44922 5.88867Q5.93262 5.25586 6.66211 4.87793Q7.3916 4.5 8.38477 4.5Q9.21973 4.5 9.94922 4.77246Q10.6787 5.04492 11.25 5.67773Q11.25 5.63379 11.25 5.58984L11.2412 5.41406Q11.2412 5.37012 11.2412 5.32617Q11.2412 5.17676 11.2588 5.03174Q11.2764 4.88672 11.3335 4.76807Q11.3906 4.64941 11.5049 4.57471Q11.6191 4.5 11.8125 4.5Q12.041 4.5 12.208 4.66699Q12.375 4.83399 12.375 5.0625L12.375 9Q12.375 9.35156 12.4102 9.78223Q12.4453 10.2129 12.542 10.6479Q12.6387 11.083 12.8013 11.4961Q12.9639 11.9092 13.2144 12.23Q13.4648 12.5508 13.812 12.7441Q14.1592 12.9375 14.625 12.9375Q15.0908 12.9375 15.438 12.7441Q15.7852 12.5508 16.0356 12.23Q16.2861 11.9092 16.4487 11.4961Q16.6113 11.083 16.708 10.6479Q16.8047 10.2129 16.8398 9.78223Q16.875 9.35156 16.875 9Q16.875 7.91895 16.5938 6.9126Q16.3125 5.90625 15.7983 5.03174Q15.2842 4.15723 14.5635 3.43652Q13.8428 2.71582 12.9683 2.20166Q12.0938 1.6875 11.0874 1.40625Q10.0811 1.125 9 1.125Q7.91016 1.125 6.90381 1.40625Q5.89746 1.6875 5.02295 2.20166Q4.14844 2.71582 3.43213 3.43213Q2.71582 4.14844 2.20166 5.02295Q1.6875 5.89746 1.40625 6.90381Q1.125 7.91016 1.125 9Q1.125 10.0898 1.40625 11.0962Q1.6875 12.1025 2.20166 12.9771Q2.71582 13.8516 3.43213 14.5679Q4.14844 15.2842 5.02295 15.7983Q5.89746 16.3125 6.90381 16.5938Q7.91016 16.875 9 16.875Q9.70312 16.875 10.3623 16.7476Q11.0215 16.6201 11.6807 16.4092Q11.7773 16.374 11.874 16.374Q12.1113 16.374 12.2739 16.5366Q12.4365 16.6992 12.4365 16.9365Q12.4365 17.1387 12.3354 17.2573Q12.2344 17.376 12.0674 17.4639Q11.8037 17.5957 11.4038 17.6968Q11.0039 17.7979 10.5688 17.8638Q10.1338 17.9297 9.71631 17.9648C9.43799 17.9883 9.19922 18 9 18Q7.75195 18 6.60059 17.6792Q5.44922 17.3584 4.44727 16.7739Q3.44531 16.1895 2.62793 15.3721Q1.81055 14.5547 1.22607 13.5527Q0.641602 12.5508 0.320801 11.3994Q0 10.248 0 9ZM11.25 9Q11.25 8.33203 11.0874 7.72119Q10.9248 7.11035 10.582 6.64453Q10.2393 6.17871 9.70752 5.90186Q9.17578 5.625 8.4375 5.625Q7.69922 5.625 7.16748 5.90186Q6.63574 6.17871 6.29297 6.64453Q5.9502 7.11035 5.7876 7.72119Q5.625 8.33203 5.625 9Q5.625 9.65039 5.79199 10.2612Q5.95898 10.8721 6.30615 11.3423Q6.65332 11.8125 7.18506 12.0938Q7.7168 12.375 8.4375 12.375Q9.1582 12.375 9.68994 12.0938Q10.2217 11.8125 10.5688 11.3423Q10.916 10.8721 11.083 10.2612Q11.25 9.65039 11.25 9Z" />
  </g>
</svg>