<?xml version="1.0" encoding="utf-8"?>
<svg width="13px" height="13px" viewBox="0 0 13 13" version="1.1" xmlns:xlink="http://www.w3.org/1999/xlink" xmlns="http://www.w3.org/2000/svg">
  <desc>Created with Lunacy</desc>
  <g id="" fill="#FFFFFF" transform="matrix(-1 -8.742278E-08 8.742278E-08 -1 13 13)">
    <path d="M6.90625 12.1875Q6.74121 12.1875 6.62061 12.0669Q6.5 11.9463 6.5 11.7813Q6.5 11.6162 6.62061 11.4956L11.6099 6.5L0.40625 6.5Q0.241211 6.5 0.120605 6.37939Q0 6.25879 0 6.09375Q0 5.92871 0.120605 5.80811Q0.241211 5.6875 0.40625 5.6875L11.6099 5.6875L6.62061 0.691895Q6.5 0.571289 6.5 0.40625Q6.5 0.241212 6.62061 0.120605Q6.74121 0 6.90625 0Q7.07129 0 7.19189 0.120605L12.8604 5.78906Q12.9302 5.85889 12.9651 5.92871Q13 5.99854 13 6.09375Q13 6.18896 12.9651 6.25879Q12.9302 6.32861 12.8604 6.39844L7.19189 12.0669Q7.07129 12.1875 6.90625 12.1875Z" />
  </g>
</svg>