<?xml version="1.0" encoding="utf-8"?>
<svg width="18px" height="18px" viewBox="0 0 18 18" version="1.1" xmlns:xlink="http://www.w3.org/1999/xlink" xmlns="http://www.w3.org/2000/svg">
  <desc>Created with Lunacy</desc>
  <g id="" fill="#FFFFFF">
    <path d="M4.5 16.875L4.5 2.25Q4.5 1.80176 4.66699 1.39746Q4.83398 0.993166 5.12842 0.685547Q5.42285 0.377932 5.81836 0.197754Q6.21387 0.01758 6.6709 0.0175781Q6.69727 0.01758 6.71484 0.0175781L6.78516 0.0263672Q6.81152 0.0263672 6.8291 0.0263672Q7.29492 0.0615253 7.77832 0.14502Q8.26172 0.228518 8.71875 0.391113Q9.17578 0.553711 9.57568 0.817383Q9.97558 1.08105 10.2744 1.47656Q10.7842 2.14453 11.0171 2.90039Q11.25 3.65625 11.25 4.5Q11.25 5.22949 11.061 5.91504Q10.8721 6.60059 10.4326 7.19824Q11.9092 7.67285 12.7046 8.6748Q13.5 9.67676 13.5 11.25Q13.5 11.9092 13.3242 12.52Q13.1484 13.1309 12.7529 13.667Q12.4365 14.0977 12.0146 14.4756Q11.5928 14.8535 11.105 15.1392Q10.6172 15.4248 10.0811 15.5874Q9.54492 15.75 9 15.75Q8.41992 15.75 7.84863 15.627Q7.27734 15.5039 6.75 15.249L6.75 16.875Q6.75 17.1123 6.66211 17.3145Q6.57422 17.5166 6.42041 17.6704Q6.2666 17.8242 6.06445 17.9121Q5.8623 18 5.625 18Q5.3877 18 5.18115 17.9121Q4.97461 17.8242 4.8252 17.6748Q4.67578 17.5254 4.58789 17.3188Q4.5 17.1123 4.5 16.875ZM6.70605 6.75Q7.22461 6.74121 7.64648 6.5874Q8.06836 6.43359 8.37158 6.14795Q8.6748 5.8623 8.8374 5.44482Q9 5.02734 9 4.5Q9 3.87598 8.85938 3.46729Q8.71875 3.05859 8.42871 2.80811Q8.13867 2.55762 7.69922 2.43896Q7.25977 2.32031 6.6709 2.27637L6.70605 6.75ZM11.25 11.25Q11.25 10.6963 11.061 10.3228Q10.8721 9.94922 10.5469 9.70752Q10.2217 9.46582 9.79102 9.33398Q9.36035 9.20215 8.87695 9.13184Q8.34961 9.05273 7.81787 9.02637Q7.28613 9 6.75 9L6.72363 9L6.75 11.7949Q6.75 12.1377 6.85107 12.4277Q6.95215 12.7178 7.2334 12.9375Q7.60254 13.2363 8.06396 13.3682Q8.52539 13.5 9 13.5Q9.21094 13.5 9.44824 13.4165Q9.68555 13.333 9.87012 13.2451Q10.1689 13.1045 10.4194 12.9023Q10.6699 12.7002 10.8545 12.4453Q11.0391 12.1904 11.1445 11.8872Q11.25 11.584 11.25 11.25Z" />
  </g>
</svg>