<?xml version="1.0" encoding="utf-8"?>
<svg width="18px" height="18px" viewBox="0 0 18 18" version="1.1" xmlns:xlink="http://www.w3.org/1999/xlink" xmlns="http://www.w3.org/2000/svg">
  <desc>Created with Lunacy</desc>
  <g id="" fill="#FFFFFF">
    <path d="M1.125 16.3125L1.125 14.001Q1.125 13.4385 1.34912 12.9419Q1.57324 12.4453 1.94678 12.0718Q2.32031 11.6982 2.82129 11.4785Q3.32227 11.2588 3.87598 11.25L4.5 11.25L4.5 9.5625L0.5625 9.5625Q0.333984 9.5625 0.166992 9.39551Q0 9.22852 0 9Q0 8.77149 0.166992 8.60449Q0.333984 8.4375 0.5625 8.4375L4.5 8.4375L4.5 6.75L3.87598 6.75Q3.32227 6.75 2.82129 6.52588Q2.32031 6.30176 1.94678 5.92822Q1.57324 5.55469 1.34912 5.05371Q1.125 4.55273 1.125 3.99902L1.125 1.6875Q1.125 1.45899 1.29199 1.29199Q1.45898 1.125 1.6875 1.125Q1.91602 1.125 2.08301 1.29199Q2.25 1.45899 2.25 1.6875L2.25 3.9375Q2.25 4.28027 2.38184 4.58789Q2.51367 4.89551 2.74658 5.12842Q2.97949 5.36133 3.28711 5.49316Q3.59473 5.625 3.9375 5.625L4.5 5.625L4.5 5.57227Q4.5 5.00977 4.69775 4.47803Q4.89551 3.94629 5.24707 3.51123Q5.59863 3.07617 6.07324 2.76855Q6.54785 2.46094 7.10156 2.33789Q6.85547 1.95117 6.80273 1.61279Q6.75 1.27441 6.75 0.870117L6.75 0.5625Q6.75 0.333986 6.91699 0.166992Q7.08398 0 7.3125 0Q7.54101 0 7.70801 0.166992Q7.875 0.333986 7.875 0.5625Q7.875 0.667969 7.87061 0.764648Q7.86621 0.86133 7.86621 0.958008Q7.86621 1.22168 7.92334 1.46338Q7.98047 1.70508 8.2002 1.9248Q8.52539 2.25 9 2.25Q9.46582 2.25 9.79102 1.9248Q10.0195 1.69629 10.0723 1.45898Q10.125 1.22168 10.125 0.958008L10.125 0.5625Q10.125 0.333986 10.292 0.166992Q10.459 0 10.6875 0Q10.8809 0 10.9907 0.074707Q11.1006 0.149416 11.1577 0.268066Q11.2148 0.386721 11.2324 0.531738Q11.25 0.67676 11.25 0.826172L11.25 1.125Q11.25 1.78418 10.8984 2.33789Q11.4521 2.46094 11.9268 2.76855Q12.4014 3.07617 12.7529 3.51123Q13.1045 3.94629 13.3022 4.47803Q13.5 5.00977 13.5 5.57227L13.5 5.625L14.0625 5.625Q14.4053 5.625 14.7129 5.49316Q15.0205 5.36133 15.2534 5.12842Q15.4863 4.89551 15.6182 4.58789Q15.75 4.28027 15.75 3.9375L15.75 1.6875Q15.75 1.45899 15.917 1.29199Q16.084 1.125 16.3125 1.125Q16.541 1.125 16.708 1.29199Q16.875 1.45899 16.875 1.6875L16.875 3.99902Q16.875 4.56152 16.6509 5.05811Q16.4268 5.55469 16.0532 5.92822Q15.6797 6.30176 15.1787 6.52148Q14.6777 6.74121 14.124 6.75L13.5 6.75L13.5 8.4375L17.4375 8.4375Q17.666 8.4375 17.833 8.60449Q18 8.77149 18 9Q18 9.22852 17.833 9.39551Q17.666 9.5625 17.4375 9.5625L13.5 9.5625L13.5 11.25L14.124 11.25Q14.6777 11.25 15.1787 11.4741Q15.6797 11.6982 16.0532 12.0718Q16.4268 12.4453 16.6509 12.9463Q16.875 13.4473 16.875 14.001L16.875 16.3125Q16.875 16.541 16.708 16.708Q16.541 16.875 16.3125 16.875Q16.084 16.875 15.917 16.708Q15.75 16.541 15.75 16.3125L15.75 14.0625Q15.75 13.7197 15.6182 13.4121Q15.4863 13.1045 15.2534 12.8716Q15.0205 12.6387 14.7129 12.5068Q14.4053 12.375 14.0625 12.375L13.5 12.375L13.5 12.4629Q13.5 13.377 13.1353 14.1812Q12.7705 14.9854 12.1509 15.583Q11.5313 16.1807 10.7183 16.5278Q9.90527 16.875 9 16.875Q8.09473 16.875 7.28174 16.5278Q6.46875 16.1807 5.84912 15.583Q5.22949 14.9854 4.86475 14.1812Q4.5 13.377 4.5 12.4629L4.5 12.375L3.9375 12.375Q3.59473 12.375 3.28711 12.5068Q2.97949 12.6387 2.74658 12.8716Q2.51367 13.1045 2.38184 13.4121Q2.25 13.7197 2.25 14.0625L2.25 16.3125Q2.25 16.541 2.08301 16.708Q1.91602 16.875 1.6875 16.875Q1.45898 16.875 1.29199 16.708Q1.125 16.541 1.125 16.3125ZM12.375 5.58105Q12.375 5.1416 12.1948 4.7417Q12.0146 4.3418 11.7114 4.03857Q11.4082 3.73535 11.0083 3.55518Q10.6084 3.375 10.1689 3.375L7.83105 3.375Q7.3916 3.375 6.9917 3.55518Q6.5918 3.73535 6.28857 4.03857Q5.98535 4.3418 5.80518 4.7417Q5.625 5.1416 5.625 5.58105L5.625 12.4453Q5.625 13.1309 5.89746 13.7329Q6.16992 14.335 6.63574 14.7832Q7.10156 15.2314 7.7124 15.4907Q8.32324 15.75 9 15.75Q9.67676 15.75 10.2876 15.4907Q10.8984 15.2314 11.3643 14.7832Q11.8301 14.335 12.1025 13.7329Q12.375 13.1309 12.375 12.4453L12.375 5.58105Z" />
  </g>
</svg>