<?xml version="1.0" encoding="utf-8"?>
<svg width="18px" height="18px" viewBox="0 0 18 18" version="1.1" xmlns:xlink="http://www.w3.org/1999/xlink" xmlns="http://www.w3.org/2000/svg">
  <desc>Created with Lunacy</desc>
  <g id="" fill="#FFFFFF">
    <path d="M2.20605 16.875Q1.7666 16.875 1.3667 16.6948Q0.966797 16.5146 0.663574 16.2114Q0.360352 15.9082 0.180176 15.5083Q0 15.1084 0 14.6689L0 4.45605Q0 3.99903 0.18457 3.59912Q0.369141 3.19922 0.676758 2.90039Q0.984375 2.60156 1.39307 2.42578Q1.80176 2.25 2.25 2.25L4.71094 2.25L5.37012 0.931641Q5.47559 0.720703 5.63818 0.549316Q5.80078 0.37793 5.99854 0.254883Q6.19629 0.131838 6.42041 0.065918Q6.64453 0 6.88184 0L11.1182 0Q11.3555 0 11.5796 0.065918Q11.8037 0.131836 12.0015 0.254883Q12.1992 0.37793 12.3618 0.549316Q12.5244 0.720703 12.6299 0.931641L13.2891 2.25L15.7939 2.25Q16.2334 2.25 16.6333 2.43018Q17.0332 2.61035 17.3364 2.91357Q17.6396 3.2168 17.8198 3.6167Q18 4.0166 18 4.45605L18 14.6689Q18 15.1084 17.8198 15.5083Q17.6396 15.9082 17.3364 16.2114Q17.0332 16.5146 16.6333 16.6948Q16.2334 16.875 15.7939 16.875L2.20605 16.875ZM15.75 15.75Q15.9873 15.75 16.1895 15.6621Q16.3916 15.5742 16.5454 15.4204Q16.6992 15.2666 16.7871 15.0645Q16.875 14.8623 16.875 14.625L16.875 4.5Q16.875 4.27149 16.7871 4.06494Q16.6992 3.8584 16.5454 3.70459Q16.3916 3.55078 16.1851 3.46289Q15.9785 3.375 15.75 3.375L12.9375 3.375Q12.7793 3.375 12.6431 3.2915Q12.5068 3.20801 12.4365 3.06738L11.6191 1.43262Q11.5488 1.29199 11.4126 1.2085Q11.2764 1.125 11.1182 1.125L6.88184 1.125Q6.72363 1.125 6.5874 1.2085Q6.45117 1.29199 6.38086 1.43262L5.56348 3.06738Q5.49316 3.20801 5.35693 3.2915Q5.2207 3.375 5.0625 3.375L2.25 3.375Q2.0127 3.375 1.81055 3.46289Q1.6084 3.55078 1.45459 3.70459Q1.30078 3.8584 1.21289 4.06055Q1.125 4.2627 1.125 4.5L1.125 14.625Q1.125 14.8623 1.21289 15.0688Q1.30078 15.2754 1.4502 15.4248Q1.59961 15.5742 1.80615 15.6621Q2.0127 15.75 2.25 15.75L15.75 15.75ZM4.5 8.91211Q4.5 8.02442 4.85596 7.22461Q5.21191 6.4248 5.81836 5.81836Q6.4248 5.21191 7.22461 4.85596Q8.02441 4.5 8.91211 4.5Q9.8877 4.5 10.7271 4.85156Q11.5664 5.20313 12.1816 5.81836Q12.7969 6.43359 13.1484 7.27295Q13.5 8.11231 13.5 9.08789Q13.5 10.002 13.1353 10.8062Q12.7705 11.6104 12.1553 12.208Q11.54 12.8057 10.7227 13.1528Q9.90527 13.5 9 13.5Q8.04199 13.5 7.22021 13.1396Q6.39844 12.7793 5.79199 12.1553Q5.18555 11.5313 4.84277 10.6963Q4.5 9.86133 4.5 8.91211ZM12.375 8.92969Q12.375 8.24414 12.1025 7.64209Q11.8301 7.04004 11.3687 6.5918Q10.9072 6.14355 10.292 5.88428Q9.67676 5.625 9 5.625Q8.29687 5.625 7.68164 5.88867Q7.06641 6.15234 6.60938 6.60938Q6.15234 7.06641 5.88867 7.68164Q5.625 8.29688 5.625 9Q5.625 9.70313 5.88867 10.3184Q6.15234 10.9336 6.60938 11.3906Q7.06641 11.8477 7.68164 12.1113Q8.29687 12.375 9 12.375Q9.7207 12.375 10.3403 12.1069Q10.96 11.8389 11.4126 11.3687Q11.8652 10.8984 12.1201 10.27Q12.375 9.6416 12.375 8.92969Z" />
  </g>
</svg>