<?xml version="1.0" encoding="utf-8"?>
<svg width="18px" height="18px" viewBox="0 0 18 18" version="1.1" xmlns:xlink="http://www.w3.org/1999/xlink" xmlns="http://www.w3.org/2000/svg">
  <desc>Created with Lunacy</desc>
  <g id="" fill="#FFFFFF">
    <path d="M0 8.4375Q0 7.26855 0.298828 6.19189Q0.597656 5.11523 1.14697 4.1748Q1.69629 3.23438 2.46533 2.46533Q3.23437 1.69629 4.1748 1.14697Q5.11523 0.597658 6.19189 0.298828Q7.26855 0 8.4375 0Q9.59766 0 10.6743 0.303223Q11.751 0.606445 12.6914 1.15576Q13.6318 1.70508 14.4009 2.47412Q15.1699 3.24316 15.7192 4.18359Q16.2686 5.12402 16.5718 6.20068Q16.875 7.27734 16.875 8.4375Q16.875 9.60645 16.5718 10.6831Q16.2686 11.7598 15.7192 12.6958Q15.1699 13.6318 14.4009 14.4009Q13.6318 15.1699 12.6958 15.7192Q11.7598 16.2686 10.6787 16.5718Q9.59766 16.875 8.4375 16.875Q7.26855 16.875 6.1875 16.5762Q5.10645 16.2773 4.17041 15.728Q3.23438 15.1787 2.46533 14.4097Q1.69629 13.6406 1.14697 12.7046Q0.597656 11.7686 0.298828 10.6875Q0 9.60645 0 8.4375ZM15.75 8.4375Q15.75 7.42676 15.4907 6.49072Q15.2314 5.55469 14.7524 4.7417Q14.2734 3.92871 13.6099 3.26514Q12.9463 2.60156 12.1333 2.12256Q11.3203 1.64356 10.3843 1.38428Q9.44824 1.125 8.4375 1.125Q7.42676 1.125 6.49072 1.38428Q5.55469 1.64356 4.7417 2.12256Q3.92871 2.60156 3.26514 3.26514Q2.60156 3.92871 2.12256 4.7417Q1.64355 5.55469 1.38428 6.49072Q1.125 7.42676 1.125 8.4375Q1.125 9.44824 1.38428 10.3843Q1.64355 11.3203 2.11816 12.1333Q2.59277 12.9463 3.26074 13.6143Q3.92871 14.2822 4.7417 14.7568Q5.55469 15.2314 6.49072 15.4907Q7.42676 15.75 8.4375 15.75Q9.44824 15.75 10.3843 15.4907Q11.3203 15.2314 12.1333 14.7568Q12.9463 14.2822 13.6143 13.6143Q14.2822 12.9463 14.7568 12.1333Q15.2314 11.3203 15.4907 10.3843Q15.75 9.44824 15.75 8.4375ZM8.4375 9Q8.20898 9 8.04199 8.83301Q7.875 8.66602 7.875 8.4375L7.875 3.9375Q7.875 3.70899 8.04199 3.54199Q8.20898 3.375 8.4375 3.375Q8.66602 3.375 8.83301 3.54199Q9 3.70899 9 3.9375L9 7.875L11.8125 7.875Q12.041 7.875 12.208 8.04199Q12.375 8.20899 12.375 8.4375Q12.375 8.66602 12.208 8.83301Q12.041 9 11.8125 9L8.4375 9Z" />
  </g>
</svg>