<?xml version="1.0" encoding="utf-8"?>
<svg width="18px" height="18px" viewBox="0 0 18 18" version="1.1" xmlns:xlink="http://www.w3.org/1999/xlink" xmlns="http://www.w3.org/2000/svg">
  <desc>Created with Lunacy</desc>
  <g id="îž" fill="#FFFFFF">
    <path d="M5.69531 10.6523Q5.2998 10.6523 4.97461 10.8105Q4.64941 10.9688 4.3374 11.1621Q4.02539 11.3555 3.69141 11.5137Q3.35742 11.6719 2.95313 11.6719Q2.4082 11.6719 1.91602 11.4082Q1.42383 11.1445 1.02832 10.8018Q0.492187 10.3359 0.246094 9.73389Q0 9.13184 0 8.42871Q0 7.72559 0.193359 7.02686Q0.386719 6.32813 0.667969 5.69531Q0.975586 5.00977 1.37988 4.36816Q1.78418 3.72656 2.25879 3.14648Q2.68945 2.61914 3.17285 2.14893Q3.65625 1.67871 4.23633 1.30957Q5.22949 0.67676 6.3501 0.342773Q7.4707 0.00879097 8.64844 0.00878906Q9.76465 0.00878906 10.8457 0.298828Q11.9268 0.588867 12.9111 1.11621Q14.1152 1.77539 15.0601 2.6543Q16.0049 3.5332 16.6597 4.60547Q17.3145 5.67773 17.6572 6.92139Q18 8.16504 18 9.54492Q18 10.3887 17.8726 11.2192Q17.7451 12.0498 17.499 12.8584Q17.3057 13.4824 17.0112 14.1108Q16.7168 14.7393 16.3213 15.3149Q15.9258 15.8906 15.4424 16.396Q14.959 16.9014 14.3921 17.2705Q13.8252 17.6396 13.1792 17.8506Q12.5332 18.0615 11.8213 18.0615Q11.4258 18.0615 11.0435 17.9912Q10.6611 17.9209 10.292 17.7891Q9.51855 17.5166 8.96484 17.1123Q8.41113 16.708 8.04639 16.1719Q7.68164 15.6357 7.49268 14.9678Q7.30371 14.2998 7.25098 13.5Q7.21582 13.0166 7.20264 12.5332Q7.18945 12.0498 7.0752 11.5752Q7.04004 11.4434 6.99609 11.2939Q6.95215 11.1445 6.85547 11.0479Q6.75879 10.9424 6.61816 10.8633Q6.47754 10.7842 6.31934 10.7402Q6.16113 10.6963 5.99854 10.6743Q5.83594 10.6523 5.69531 10.6523ZM11.8213 16.9365Q12.4805 16.9365 13.0781 16.686Q13.6758 16.4355 14.1855 16.0225Q14.8799 15.46 15.3896 14.6953Q15.8994 13.9307 16.2334 13.0649Q16.5674 12.1992 16.7256 11.2808Q16.8838 10.3623 16.8838 9.49219Q16.8838 8.27051 16.5806 7.18066Q16.2773 6.09082 15.6973 5.15479Q15.1172 4.21875 14.2822 3.4541Q13.4473 2.68945 12.3838 2.10938Q11.5312 1.64356 10.582 1.37988Q9.63281 1.11621 8.64844 1.11621Q7.43555 1.11621 6.37646 1.50293Q5.31738 1.88965 4.43848 2.5708Q3.55957 3.25195 2.86523 4.17041Q2.1709 5.08887 1.69629 6.15234Q1.4502 6.68848 1.2876 7.25977Q1.125 7.83105 1.125 8.42871Q1.125 8.88574 1.26563 9.25928Q1.40625 9.63281 1.74902 9.94043Q1.8457 10.0283 1.99072 10.1338Q2.13574 10.2393 2.29395 10.3315Q2.45215 10.4238 2.61035 10.4897Q2.76855 10.5557 2.90039 10.5557Q3.14648 10.5557 3.42773 10.3931Q3.70898 10.2305 4.04736 10.0415Q4.38574 9.85254 4.79004 9.68994Q5.19434 9.52734 5.69531 9.52734Q5.96777 9.52734 6.24023 9.57568Q6.51269 9.62402 6.76758 9.70313Q7.33887 9.8877 7.64648 10.2305Q7.9541 10.5732 8.09912 11.0171Q8.24414 11.4609 8.2793 11.9839Q8.31445 12.5068 8.34521 13.0518Q8.37598 13.5967 8.45947 14.1416Q8.54297 14.6865 8.78027 15.1743Q9.01758 15.6621 9.46582 16.0664Q9.91406 16.4707 10.6699 16.7344Q11.2324 16.9365 11.8213 16.9365ZM7.875 4.21875Q7.875 3.86719 8.12109 3.62109Q8.36719 3.375 8.71875 3.375Q9.07031 3.375 9.31641 3.62109Q9.5625 3.86719 9.5625 4.21875Q9.5625 4.57031 9.31641 4.81641Q9.07031 5.0625 8.71875 5.0625Q8.36719 5.0625 8.12109 4.81641Q7.875 4.57031 7.875 4.21875ZM11.25 5.34375Q11.25 4.99219 11.4961 4.74609Q11.7422 4.5 12.0938 4.5Q12.4453 4.5 12.6914 4.74609Q12.9375 4.99219 12.9375 5.34375Q12.9375 5.69531 12.6914 5.94141Q12.4453 6.1875 12.0938 6.1875Q11.7422 6.1875 11.4961 5.94141Q11.25 5.69531 11.25 5.34375ZM13.2188 7.875Q13.2188 7.52344 13.4648 7.27734Q13.7109 7.03125 14.0625 7.03125Q14.4141 7.03125 14.6602 7.27734Q14.9063 7.52344 14.9063 7.875Q14.9063 8.22656 14.6602 8.47266Q14.4141 8.71875 14.0625 8.71875Q13.7109 8.71875 13.4648 8.47266Q13.2187 8.22656 13.2188 7.875ZM13.2188 11.25Q13.2188 10.8984 13.4648 10.6523Q13.7109 10.4063 14.0625 10.4063Q14.4141 10.4063 14.6602 10.6523Q14.9063 10.8984 14.9063 11.25Q14.9063 11.6016 14.6602 11.8477Q14.4141 12.0938 14.0625 12.0938Q13.7109 12.0938 13.4648 11.8477Q13.2187 11.6016 13.2188 11.25ZM10.9688 13.5Q10.9688 13.1484 11.2148 12.9023Q11.4609 12.6563 11.8125 12.6563Q12.1641 12.6563 12.4102 12.9023Q12.6563 13.1484 12.6563 13.5Q12.6563 13.8516 12.4102 14.0977Q12.1641 14.3438 11.8125 14.3438Q11.4609 14.3438 11.2148 14.0977Q10.9687 13.8516 10.9688 13.5Z" />
  </g>
</svg>