<?xml version="1.0" encoding="utf-8"?>
<svg width="18px" height="18px" viewBox="0 0 18 18" version="1.1" xmlns:xlink="http://www.w3.org/1999/xlink" xmlns="http://www.w3.org/2000/svg">
  <desc>Created with Lunacy</desc>
  <g id="" fill="#FFFFFF">
    <path d="M0 8.4375Q0 7.26855 0.298828 6.19189Q0.597656 5.11523 1.14697 4.1748Q1.69629 3.23438 2.46533 2.46533Q3.23437 1.69629 4.1748 1.14697Q5.11523 0.597658 6.19189 0.298828Q7.26855 0 8.4375 0Q9.59766 0 10.6743 0.303223Q11.751 0.606445 12.6914 1.15576Q13.6318 1.70508 14.4009 2.47412Q15.1699 3.24316 15.7192 4.18359Q16.2686 5.12402 16.5718 6.20068Q16.875 7.27734 16.875 8.4375Q16.875 9.60645 16.5762 10.6831Q16.2773 11.7598 15.728 12.7002Q15.1787 13.6406 14.4097 14.4097Q13.6406 15.1787 12.7002 15.728Q11.7598 16.2773 10.6831 16.5762Q9.60644 16.875 8.4375 16.875Q7.26855 16.875 6.1875 16.5762Q5.10645 16.2773 4.17041 15.728Q3.23438 15.1787 2.46533 14.4097Q1.69629 13.6406 1.14697 12.7046Q0.597656 11.7686 0.298828 10.6875Q0 9.60645 0 8.4375ZM15.75 8.4375Q15.75 7.42676 15.4907 6.49072Q15.2314 5.55469 14.7524 4.7417Q14.2734 3.92871 13.6099 3.26514Q12.9463 2.60156 12.1333 2.12256Q11.3203 1.64356 10.3843 1.38428Q9.44824 1.125 8.4375 1.125Q7.42676 1.125 6.49072 1.38428Q5.55469 1.64356 4.7417 2.12256Q3.92871 2.60156 3.26514 3.26514Q2.60156 3.92871 2.12256 4.7417Q1.64355 5.55469 1.38428 6.49072Q1.125 7.42676 1.125 8.4375Q1.125 9.44824 1.38428 10.3843Q1.64355 11.3203 2.11816 12.1333Q2.59277 12.9463 3.26074 13.6143Q3.92871 14.2822 4.7417 14.7568Q5.55469 15.2314 6.49072 15.4907Q7.42676 15.75 8.4375 15.75Q9.44824 15.75 10.3843 15.4907Q11.3203 15.2314 12.1333 14.7568Q12.9463 14.2822 13.6143 13.6143Q14.2822 12.9463 14.7568 12.1333Q15.2314 11.3203 15.4907 10.3843Q15.75 9.44824 15.75 8.4375ZM4.5 8.4375Q4.5 8.20899 4.66699 8.04199Q4.83398 7.875 5.0625 7.875Q5.29102 7.875 5.45801 8.04199L7.3125 9.8877L11.417 5.79199Q11.584 5.625 11.8125 5.625Q12.041 5.625 12.208 5.79199Q12.375 5.95899 12.375 6.1875Q12.375 6.41602 12.208 6.58301L7.70801 11.083Q7.54101 11.25 7.3125 11.25Q7.08398 11.25 6.91699 11.083L4.66699 8.83301Q4.5 8.66602 4.5 8.4375Z" />
  </g>
</svg>