<?xml version="1.0" encoding="utf-8"?>
<svg width="18px" height="18px" viewBox="0 0 18 18" version="1.1" xmlns:xlink="http://www.w3.org/1999/xlink" xmlns="http://www.w3.org/2000/svg">
  <desc>Created with Lunacy</desc>
  <g id="" fill="#FFFFFF">
    <path d="M2.8125 10.125Q2.8125 9.89648 2.97949 9.72949Q3.14648 9.5625 3.375 9.5625Q3.60352 9.5625 3.77051 9.72949L7.875 13.8252L7.875 0.5625Q7.875 0.333986 8.04199 0.166992Q8.20898 0 8.4375 0Q8.66602 0 8.83301 0.166992Q9 0.333986 9 0.5625L9 13.8252L13.1045 9.72949Q13.2715 9.5625 13.5 9.5625Q13.7285 9.5625 13.8955 9.72949Q14.0625 9.89648 14.0625 10.125Q14.0625 10.3535 13.8955 10.5205L8.85938 15.5566Q8.76269 15.6533 8.67041 15.7017Q8.57813 15.75 8.4375 15.75Q8.29688 15.75 8.20459 15.7017Q8.1123 15.6533 8.01563 15.5566L2.97949 10.5205Q2.8125 10.3535 2.8125 10.125ZM14.0625 16.875Q14.291 16.875 14.458 17.042Q14.625 17.209 14.625 17.4375Q14.625 17.666 14.458 17.833Q14.291 18 14.0625 18L2.8125 18Q2.58398 18 2.41699 17.833Q2.25 17.666 2.25 17.4375Q2.25 17.209 2.41699 17.042Q2.58398 16.875 2.8125 16.875L14.0625 16.875Z" />
  </g>
</svg>