<?xml version="1.0" encoding="utf-8"?>
<svg width="18px" height="18px" viewBox="0 0 18 18" version="1.1" xmlns:xlink="http://www.w3.org/1999/xlink" xmlns="http://www.w3.org/2000/svg">
  <desc>Created with Lunacy</desc>
  <g id="" fill="#FFFFFF">
    <path d="M0 2.8125Q0 2.46094 0.131836 2.15332Q0.263672 1.84571 0.492188 1.61719Q0.720703 1.38867 1.02832 1.25684Q1.33594 1.125 1.6875 1.125L16.3125 1.125Q16.6641 1.125 16.9717 1.25684Q17.2793 1.38867 17.5078 1.61719Q17.7363 1.8457 17.8682 2.15332Q18 2.46094 18 2.8125Q18 3.5332 17.4727 4.03418L11.7773 9.46582Q11.6543 9.58887 11.5576 9.72949Q11.4609 9.87012 11.3906 10.0195Q11.25 10.3271 11.25 10.6875L11.25 17.4375Q11.25 17.666 11.083 17.833Q10.916 18 10.6875 18Q10.5205 18 10.3799 17.9033L7.00488 15.6533Q6.75 15.4863 6.75 15.1875L6.75 10.6875Q6.75 10.3359 6.61816 10.0195Q6.54785 9.86133 6.44678 9.7251Q6.3457 9.58887 6.22266 9.46582L0.527344 4.03418Q0 3.5332 0 2.8125ZM16.875 2.80371Q16.875 2.5752 16.708 2.4126Q16.541 2.25 16.3125 2.25L1.6875 2.25Q1.45898 2.25 1.29199 2.4126Q1.125 2.5752 1.125 2.80371Q1.125 3.05859 1.30078 3.2168L7.00488 8.64844Q7.41797 9.04395 7.64648 9.58008Q7.875 10.1162 7.875 10.6875L7.875 14.8887L10.125 16.3828L10.125 10.6875Q10.125 10.1162 10.3535 9.58008Q10.582 9.04395 10.9951 8.64844L16.6992 3.2168Q16.875 3.05859 16.875 2.80371Z" />
  </g>
</svg>