<?xml version="1.0" encoding="utf-8"?>
<svg width="18px" height="18px" viewBox="0 0 18 18" version="1.1" xmlns:xlink="http://www.w3.org/1999/xlink" xmlns="http://www.w3.org/2000/svg">
  <desc>Created with Lunacy</desc>
  <g id="" fill="#FFFFFF">
    <path d="M2.75098 16.875Q2.19727 16.875 1.69629 16.6509Q1.19531 16.4268 0.821777 16.0532Q0.448242 15.6797 0.224121 15.1787Q0 14.6777 0 14.124L0 3.87598Q0 3.32227 0.224121 2.82129Q0.448242 2.32031 0.821777 1.94678Q1.19531 1.57324 1.69629 1.34912Q2.19727 1.125 2.75098 1.125L6.1875 1.125Q6.79395 1.125 7.229 1.31396Q7.66406 1.50293 8.01563 1.81934Q8.36719 2.13574 8.66602 2.54004Q8.96484 2.94434 9.28125 3.375L15.249 3.375Q15.8027 3.375 16.3037 3.59912Q16.8047 3.82324 17.1782 4.19678Q17.5518 4.57031 17.7759 5.07129Q18 5.57227 18 6.12598L18 14.124Q18 14.6777 17.7759 15.1787Q17.5518 15.6797 17.1782 16.0532Q16.8047 16.4268 16.3037 16.6509Q15.8027 16.875 15.249 16.875L2.75098 16.875ZM6.62695 4.5Q6.86426 4.5 7.06641 4.43848Q7.26855 4.37695 7.46191 4.27588Q7.65527 4.1748 7.83105 4.05176Q8.00684 3.92871 8.19141 3.79688Q7.98926 3.52442 7.7959 3.24756Q7.60254 2.97071 7.37402 2.75098Q7.14551 2.53125 6.85986 2.39063Q6.57422 2.25 6.1875 2.25L2.8125 2.25Q2.46973 2.25 2.16211 2.38184Q1.85449 2.51367 1.62158 2.74658Q1.38867 2.97949 1.25684 3.28711Q1.125 3.59473 1.125 3.9375L1.125 4.5L6.62695 4.5ZM15.1875 15.75Q15.5303 15.75 15.8379 15.6182Q16.1455 15.4863 16.3784 15.2534Q16.6113 15.0205 16.7432 14.7129Q16.875 14.4053 16.875 14.0625L16.875 6.1875Q16.875 5.84473 16.7432 5.53711Q16.6113 5.22949 16.3784 4.99658Q16.1455 4.76367 15.8379 4.63184Q15.5303 4.5 15.1875 4.5L9.16699 4.5Q8.85937 4.71094 8.57373 4.91309Q8.28809 5.11523 7.98486 5.27344Q7.68164 5.43164 7.34766 5.52832Q7.01367 5.625 6.62695 5.625L1.125 5.625L1.125 14.0625Q1.125 14.4053 1.25684 14.7129Q1.38867 15.0205 1.62158 15.2534Q1.85449 15.4863 2.16211 15.6182Q2.46973 15.75 2.8125 15.75L15.1875 15.75Z" />
  </g>
</svg>