<?xml version="1.0" encoding="utf-8"?>
<svg width="23px" height="12px" viewBox="0 0 23 12" version="1.1" xmlns:xlink="http://www.w3.org/1999/xlink" xmlns="http://www.w3.org/2000/svg">
  <desc>Created with Lunacy</desc>
  <g id="logo" opacity="0.75">
    <g id="Group">
      <path d="M20.1071 1.41457L10.5587 0.934625L22.2289 0.934625L22.2289 0L9.04313 0L9.04313 1.97029L9.04313 3.53642C9.04313 3.56168 8.66423 1.23775 8.56318 0.580983L7.52752 0.580983L7.52752 2.29867L7.52752 3.8648C7.52752 3.89006 7.07284 1.11145 7.04758 0.757804C4.42052 0.757804 0 0.757804 0 0.757804C0.479942 1.16197 3.13226 3.43538 5.02677 4.37C5.96139 4.82468 7.12336 4.84994 8.15902 4.8752C8.68948 4.90047 9.21995 4.92572 9.62411 5.32989C10.2051 5.88561 10.3314 6.76971 9.82619 7.42648C9.34625 8.08324 7.9822 8.2348 7.9822 8.2348L6.82024 9.59885L6.82024 11.2155L9.42203 11.2155L9.49781 9.62411L11.746 8.03272C11.5186 8.2348 10.9629 8.74 10.1798 9.97775C10.003 10.2556 9.85145 10.5587 9.75041 10.8619C10.3061 10.3819 11.4681 10.0535 12.8321 10.0535C14.1709 10.0535 15.3329 10.3819 15.8886 10.8619C15.7876 10.5587 15.636 10.2556 15.4592 9.97775C14.6509 8.74 14.1204 8.2348 13.8931 8.03272L16.1412 9.62411L16.217 11.2155L18.642 11.2155L18.642 9.59885L17.5053 8.20954C17.5053 8.20954 15.8128 8.1085 15.3834 7.40122C14.0699 5.43093 15.8634 2.34919 20.1071 1.41457L20.1071 1.41457Z" id="Shape" fill="#FFFFFF" stroke="none" />
    </g>
  </g>
</svg>