<?xml version="1.0" encoding="utf-8"?>
<svg width="18px" height="18px" viewBox="0 0 18 18" version="1.1" xmlns:xlink="http://www.w3.org/1999/xlink" xmlns="http://www.w3.org/2000/svg">
  <desc>Created with Lunacy</desc>
  <g id="" fill="#FFFFFF">
    <path d="M11.8125 2.25Q12.665 2.25 13.4561 2.46973Q14.2471 2.68945 14.9326 3.09375Q15.6182 3.49805 16.1851 4.06494Q16.752 4.63184 17.1563 5.31738Q17.5605 6.00293 17.7803 6.79395Q18 7.58496 18 8.4375Q18 9.29004 17.7803 10.0811Q17.5605 10.8721 17.1563 11.5576Q16.752 12.2432 16.1851 12.8101Q15.6182 13.377 14.9326 13.7813Q14.2471 14.1855 13.4561 14.4053Q12.665 14.625 11.8125 14.625L6.1875 14.625Q5.33496 14.625 4.54395 14.4053Q3.75293 14.1855 3.06738 13.7813Q2.38184 13.377 1.81494 12.8101Q1.24805 12.2432 0.84375 11.5576Q0.439453 10.8721 0.219727 10.0811Q0 9.29004 0 8.4375Q0 7.58496 0.219727 6.79395Q0.439453 6.00293 0.84375 5.31738Q1.24805 4.63184 1.81494 4.06494Q2.38184 3.49805 3.06738 3.09375Q3.75293 2.68945 4.54395 2.46973Q5.33496 2.25 6.1875 2.25L11.8125 2.25ZM11.8125 13.5Q12.8584 13.5 13.7813 13.1001Q14.7041 12.7002 15.3896 12.0146Q16.0752 11.3291 16.4751 10.4063Q16.875 9.4834 16.875 8.4375Q16.875 7.74316 16.6948 7.09717Q16.5146 6.45117 16.1851 5.88867Q15.8555 5.32617 15.3896 4.86035Q14.9238 4.39453 14.3613 4.06494Q13.7988 3.73535 13.1528 3.55518Q12.5068 3.375 11.8125 3.375L6.1875 3.375Q5.1416 3.375 4.21875 3.7749Q3.2959 4.1748 2.61035 4.86035Q1.9248 5.5459 1.5249 6.46875Q1.125 7.3916 1.125 8.4375Q1.125 9.49219 1.52051 10.415Q1.91602 11.3379 2.60156 12.0234Q3.28711 12.709 4.20996 13.1045Q5.13281 13.5 6.1875 13.5L11.8125 13.5ZM7.875 8.4375Q7.875 8.66602 7.70801 8.83301Q7.54101 9 7.3125 9L5.625 9L5.625 10.6875Q5.625 10.916 5.45801 11.083Q5.29102 11.25 5.0625 11.25Q4.83398 11.25 4.66699 11.083Q4.5 10.916 4.5 10.6875L4.5 9L2.8125 9Q2.58398 9 2.41699 8.83301Q2.25 8.66602 2.25 8.4375Q2.25 8.20899 2.41699 8.04199Q2.58398 7.875 2.8125 7.875L4.5 7.875L4.5 6.1875Q4.5 5.95899 4.66699 5.79199Q4.83398 5.625 5.0625 5.625Q5.29102 5.625 5.45801 5.79199Q5.625 5.95899 5.625 6.1875L5.625 7.875L7.3125 7.875Q7.54101 7.875 7.70801 8.04199Q7.875 8.20899 7.875 8.4375ZM14.625 6.75Q14.625 6.9873 14.5371 7.18945Q14.4492 7.3916 14.2954 7.54541Q14.1416 7.69922 13.9395 7.78711Q13.7373 7.875 13.5 7.875Q13.2627 7.875 13.0562 7.78711Q12.8496 7.69922 12.7002 7.5498Q12.5508 7.40039 12.4629 7.19385Q12.375 6.9873 12.375 6.75Q12.375 6.5127 12.4629 6.31055Q12.5508 6.1084 12.7046 5.95459Q12.8584 5.80078 13.0605 5.71289Q13.2627 5.625 13.5 5.625Q13.7285 5.625 13.9351 5.71289Q14.1416 5.80078 14.2954 5.95459Q14.4492 6.1084 14.5371 6.31494Q14.625 6.52149 14.625 6.75ZM12.375 10.125Q12.375 10.3623 12.2871 10.5645Q12.1992 10.7666 12.0454 10.9204Q11.8916 11.0742 11.6895 11.1621Q11.4873 11.25 11.25 11.25Q11.0127 11.25 10.8062 11.1621Q10.5996 11.0742 10.4502 10.9248Q10.3008 10.7754 10.2129 10.5688Q10.125 10.3623 10.125 10.125Q10.125 9.8877 10.2129 9.68555Q10.3008 9.4834 10.4546 9.32959Q10.6084 9.17578 10.8105 9.08789Q11.0127 9 11.25 9Q11.4785 9 11.6851 9.08789Q11.8916 9.17578 12.0454 9.32959Q12.1992 9.4834 12.2871 9.68994Q12.375 9.89648 12.375 10.125Z" />
  </g>
</svg>