<?xml version="1.0" encoding="utf-8"?>
<svg width="18px" height="18px" viewBox="0 0 18 18" version="1.1" xmlns:xlink="http://www.w3.org/1999/xlink" xmlns="http://www.w3.org/2000/svg">
  <desc>Created with Lunacy</desc>
  <g id="" fill="#FFFFFF">
    <path d="M0 6.02051Q0 5.00977 0.37793 4.12207Q0.755859 3.23438 1.41064 2.56641Q2.06543 1.89844 2.94873 1.51172Q3.83203 1.125 4.85156 1.125Q5.83594 1.125 6.72803 1.50293Q7.62012 1.88086 8.31445 2.5752Q8.40234 2.66309 8.49023 2.75098L8.81543 3.08496Q8.90332 3.17285 8.99121 3.26074Q9.1582 3.08496 9.3208 2.91797Q9.4834 2.75098 9.65918 2.58398Q10.3447 1.89844 11.2324 1.5249Q12.1201 1.15137 13.0957 1.15137Q14.1152 1.15137 15.0117 1.54248Q15.9082 1.9336 16.5718 2.60596Q17.2353 3.27832 17.6177 4.1748Q18 5.07129 18 6.09082Q18 7.05762 17.6353 7.96729Q17.2705 8.87695 16.585 9.5625L9.5625 16.6553Q9.34277 16.875 9.02637 16.875Q8.71875 16.875 8.49902 16.6553L1.43262 9.51855Q0.738281 8.81543 0.369141 7.91016Q0 7.00488 0 6.02051ZM16.875 6.09082Q16.875 5.30859 16.5806 4.61426Q16.2861 3.91992 15.772 3.40137Q15.2578 2.88281 14.5723 2.57959Q13.8867 2.27637 13.0957 2.27637Q12.3486 2.27637 11.6675 2.56201Q10.9863 2.84766 10.459 3.375Q10.292 3.54199 10.1294 3.71777Q9.9668 3.89356 9.79102 4.05176Q9.61523 4.21875 9.42627 4.29785Q9.2373 4.37695 8.99121 4.37695Q8.75391 4.37695 8.56055 4.29346Q8.36719 4.20996 8.19141 4.05176Q8.01562 3.88477 7.85303 3.71338Q7.69043 3.54199 7.51465 3.36621Q6.96973 2.83008 6.29736 2.54004Q5.625 2.25 4.85156 2.25Q4.06934 2.25 3.38818 2.54883Q2.70703 2.84766 2.20605 3.35742Q1.70508 3.86719 1.41504 4.55713Q1.125 5.24707 1.125 6.02051Q1.125 6.77637 1.41504 7.48389Q1.70508 8.19141 2.23242 8.72754L9.02637 15.5918L15.7852 8.77148Q16.3125 8.23535 16.5938 7.53662Q16.875 6.83789 16.875 6.09082Z" />
  </g>
</svg>