<?xml version="1.0" encoding="utf-8"?>
<svg width="18px" height="18px" viewBox="0 0 18 18" version="1.1" xmlns:xlink="http://www.w3.org/1999/xlink" xmlns="http://www.w3.org/2000/svg">
  <desc>Created with Lunacy</desc>
  <g id="" fill="#FFFFFF">
    <path d="M15.75 6.55664Q15.75 7.66406 15.3721 8.72754Q14.9941 9.79102 14.2822 10.6436Q14.1504 10.8018 13.9614 10.9775Q13.7725 11.1533 13.5967 11.3423Q13.4209 11.5313 13.2759 11.7246Q13.1309 11.918 13.0869 12.1201L12.1025 16.2686Q12.0059 16.6553 11.8037 16.9717Q11.6016 17.2881 11.3115 17.5166Q11.0215 17.7451 10.6655 17.8726C10.4282 17.9575 10.1777 18 9.91406 18L8.08594 18C7.82227 18 7.57178 17.9575 7.33447 17.8726Q6.97852 17.7451 6.68848 17.5122Q6.39844 17.2793 6.19189 16.9629Q5.98535 16.6465 5.89746 16.2686L4.89551 12.1025Q4.84277 11.8916 4.70654 11.6982Q4.57031 11.5049 4.39453 11.3247Q4.21875 11.1445 4.03418 10.9731Q3.84961 10.8018 3.70898 10.6348Q2.99707 9.78223 2.62354 8.72314Q2.25 7.66406 2.25 6.55664Q2.25 5.63379 2.49609 4.78564Q2.74219 3.9375 3.19043 3.20801Q3.63867 2.47852 4.2583 1.88525Q4.87793 1.29199 5.62939 0.874512Q6.38086 0.457031 7.2334 0.228516Q8.08594 1.90735e-06 9 0Q9.90527 0 10.7622 0.228516Q11.6191 0.457031 12.3662 0.878906Q13.1133 1.30078 13.7373 1.89404Q14.3613 2.4873 14.8096 3.2124Q15.2578 3.9375 15.5039 4.78564Q15.75 5.63379 15.75 6.55664ZM14.625 6.55664Q14.625 5.79199 14.4185 5.08887Q14.2119 4.38574 13.8384 3.78369Q13.4648 3.18164 12.9419 2.68945Q12.4189 2.19727 11.7949 1.8501Q11.1709 1.50293 10.4634 1.31396Q9.75586 1.125 9 1.125Q8.24414 1.125 7.53662 1.31396Q6.8291 1.50293 6.20508 1.8501Q5.58105 2.19727 5.05811 2.68945Q4.53516 3.18164 4.16162 3.78369Q3.78809 4.38574 3.58154 5.08887Q3.375 5.79199 3.375 6.55664Q3.375 7.17188 3.49805 7.7124Q3.62109 8.25293 3.84961 8.74512Q4.07812 9.23731 4.4165 9.68555Q4.75488 10.1338 5.18555 10.5557Q5.34375 10.7139 5.4668 10.8501Q5.58984 10.9863 5.68652 11.1357Q5.7832 11.2852 5.85791 11.4565Q5.93262 11.6279 5.99414 11.8477Q6.1084 12.2607 6.20508 12.665L6.38965 13.5L11.6104 13.5Q11.707 13.0869 11.7949 12.6782Q11.8828 12.2695 11.9971 11.8564Q12.0586 11.6367 12.1333 11.4653Q12.208 11.2939 12.3047 11.1445Q12.4014 10.9951 12.5244 10.8589Q12.6475 10.7227 12.8057 10.5645Q13.2363 10.1426 13.5791 9.69434Q13.9219 9.24609 14.1504 8.75391Q14.3789 8.26172 14.502 7.72119Q14.625 7.18066 14.625 6.55664ZM9.91406 16.875Q10.3096 16.875 10.6128 16.6333Q10.916 16.3916 11.0127 16.0137Q11.1094 15.6709 11.1841 15.3237Q11.2588 14.9766 11.3379 14.625L6.65332 14.625Q6.74121 14.9766 6.81592 15.3237Q6.89062 15.6709 6.9873 16.0137Q7.08398 16.3916 7.38721 16.6333Q7.69043 16.875 8.08594 16.875L9.91406 16.875Z" />
  </g>
</svg>