<?xml version="1.0" encoding="utf-8"?>
<svg width="18px" height="18px" viewBox="0 0 18 18" version="1.1" xmlns:xlink="http://www.w3.org/1999/xlink" xmlns="http://www.w3.org/2000/svg">
  <desc>Created with Lunacy</desc>
  <g id="" fill="#FFFFFF">
    <path d="M5.0625 13.5Q4.0166 13.5 3.09375 13.1001Q2.1709 12.7002 1.48535 12.0146Q0.799805 11.3291 0.399902 10.4063Q0 9.4834 0 8.4375Q0 7.3916 0.399902 6.46875Q0.799805 5.5459 1.48535 4.86035Q2.1709 4.1748 3.09375 3.7749Q4.0166 3.375 5.0625 3.375L7.3125 3.375Q7.54101 3.375 7.70801 3.54199Q7.875 3.70899 7.875 3.9375Q7.875 4.16602 7.70801 4.33301Q7.54101 4.5 7.3125 4.5L5.0625 4.5Q4.24512 4.5 3.52881 4.80762Q2.8125 5.11523 2.27637 5.65137Q1.74023 6.1875 1.43262 6.90381Q1.125 7.62012 1.125 8.4375Q1.125 9.25488 1.43262 9.97119Q1.74023 10.6875 2.27637 11.2236Q2.8125 11.7598 3.52881 12.0674Q4.24512 12.375 5.0625 12.375L7.3125 12.375Q7.54101 12.375 7.70801 12.542Q7.875 12.709 7.875 12.9375Q7.875 13.166 7.70801 13.333Q7.54101 13.5 7.3125 13.5L5.0625 13.5ZM10.6875 13.5Q10.459 13.5 10.292 13.333Q10.125 13.166 10.125 12.9375Q10.125 12.709 10.292 12.542Q10.459 12.375 10.6875 12.375L12.9375 12.375Q13.7549 12.375 14.4712 12.0674Q15.1875 11.7598 15.7236 11.2236Q16.2598 10.6875 16.5674 9.97119Q16.875 9.25488 16.875 8.4375Q16.875 7.62012 16.5674 6.90381Q16.2598 6.1875 15.7236 5.65137Q15.1875 5.11523 14.4712 4.80762Q13.7549 4.5 12.9375 4.5L10.6875 4.5Q10.459 4.5 10.292 4.33301Q10.125 4.16602 10.125 3.9375Q10.125 3.70899 10.292 3.54199Q10.459 3.375 10.6875 3.375L12.9375 3.375Q13.9834 3.375 14.9063 3.7749Q15.8291 4.1748 16.5146 4.86035Q17.2002 5.5459 17.6001 6.46875Q18 7.3916 18 8.4375Q18 9.4834 17.6001 10.4063Q17.2002 11.3291 16.5146 12.0146Q15.8291 12.7002 14.9063 13.1001Q13.9834 13.5 12.9375 13.5L10.6875 13.5ZM5.00098 9Q4.77246 9 4.63623 8.82422Q4.5 8.64844 4.5 8.4375Q4.5 8.22656 4.63623 8.05078Q4.77246 7.875 5.00098 7.875L12.999 7.875Q13.2275 7.875 13.3638 8.05078Q13.5 8.22656 13.5 8.4375Q13.5 8.64844 13.3638 8.82422Q13.2275 9 12.999 9L5.00098 9Z" />
  </g>
</svg>