<?xml version="1.0" encoding="utf-8"?>
<svg width="19px" height="19px" viewBox="0 0 19 19" version="1.1" xmlns:xlink="http://www.w3.org/1999/xlink" xmlns="http://www.w3.org/2000/svg">
  <desc>Created with Lunacy</desc>
  <defs>
    <path d="M0 0L18.9217 0L18.9217 18.9217L0 18.9217L0 0Z" id="path_1" />
    <clipPath id="mask_1">
      <use xlink:href="#path_1" />
    </clipPath>
  </defs>
  <g id="package" opacity="0.75">
    <g id="Group">
      <path d="M0 0L18.9217 0L18.9217 18.9217L0 18.9217L0 0Z" id="Rectangle" fill="none" stroke="none" />
      <g clip-path="url(#mask_1)">
        <g id="Group" transform="translate(1.576782 0.7900391)">
          <g id="Group">
            <path d="M7.88404 0C7.4695 0 7.06228 0.108946 6.70314 0.315905L4.18354 1.75568C4.01786 1.78845 3.86331 1.87403 3.74697 2.00514L1.18565 3.46876L1.18261 3.4705C0.890912 3.63892 0.639347 3.86722 0.443935 4.13938C0.39635 4.18698 0.354124 4.24148 0.318825 4.30252C0.288419 4.35507 0.264758 4.4097 0.247575 4.46533C0.0854032 4.79131 0.000374804 5.15099 0 5.51642L0 11.8253C0.000425432 12.2401 0.109915 12.6474 0.317484 13.0065C0.525054 13.3656 0.823403 13.6638 1.18261 13.8712L1.18565 13.8729L6.70143 17.0248L6.7029 17.0256C6.953 17.1698 7.22639 17.2664 7.50935 17.3118C7.62081 17.3721 7.74845 17.4063 7.88404 17.4063C8.01967 17.4063 8.14731 17.3721 8.25876 17.3118C8.54175 17.2664 8.81515 17.1698 9.06524 17.0256L9.06665 17.0248L14.5824 13.8729L14.5855 13.8712C14.9447 13.6638 15.243 13.3656 15.4506 13.0065C15.6582 12.6474 15.7677 12.2401 15.7681 11.8253L15.7681 5.51642C15.7677 5.15099 15.6827 4.79131 15.5206 4.46533C15.5033 4.40967 15.4797 4.35507 15.4493 4.30252C15.4139 4.24148 15.3718 4.18698 15.3242 4.13938C15.1288 3.86722 14.8772 3.63892 14.5855 3.4705L9.06665 0.316879L9.06501 0.31593C8.7059 0.108954 8.29858 0 7.88404 0ZM5.96106 2.55604L11.436 5.71326L13.3722 4.59323L8.27827 1.68243C8.15842 1.61325 8.02242 1.57681 7.88406 1.57681C7.74569 1.57681 7.60972 1.61325 7.48988 1.68243L7.48683 1.68419L5.96106 2.55604ZM4.37561 3.46201L2.39594 4.59323L7.88402 7.7679L9.86017 6.62477L4.37561 3.46201ZM7.09562 9.13346L7.09562 15.434L1.97098 12.5056L1.96974 12.5049C1.85056 12.4358 1.75156 12.3367 1.68261 12.2174C1.61347 12.0978 1.57698 11.9622 1.57678 11.8241L1.57678 5.94104L7.09562 9.13346ZM14.1913 5.94104L8.67242 9.13346L8.67242 15.434L13.797 12.5056L13.7983 12.5049C13.9175 12.4358 14.0165 12.3367 14.0854 12.2174C14.1546 12.0977 14.1911 11.9619 14.1913 11.8237L14.1913 5.94104Z" id="Shape" fill="#FFFFFF" fill-rule="evenodd" stroke="none" />
          </g>
        </g>
      </g>
    </g>
  </g>
</svg>