<?xml version="1.0" encoding="utf-8"?>
<svg width="18px" height="18px" viewBox="0 0 18 18" version="1.1" xmlns:xlink="http://www.w3.org/1999/xlink" xmlns="http://www.w3.org/2000/svg">
  <desc>Created with Lunacy</desc>
  <g id="" fill="#FFFFFF">
    <path d="M3.375 3.375L3.375 3.33105Q3.375 2.87402 3.55957 2.47412Q3.74414 2.07422 4.05176 1.77539Q4.35937 1.47656 4.76807 1.30078Q5.17676 1.125 5.625 1.125Q6.08203 1.125 6.49512 1.30518Q6.9082 1.48535 7.21143 1.78857Q7.51465 2.0918 7.69482 2.50488Q7.875 2.91797 7.875 3.375Q7.875 3.84082 7.69482 4.24951Q7.51465 4.6582 7.21143 4.96143Q6.9082 5.26465 6.49512 5.44482Q6.08203 5.625 5.625 5.625Q5.15918 5.625 4.75049 5.44482Q4.3418 5.26465 4.03857 4.96143Q3.73535 4.6582 3.55518 4.24951Q3.375 3.84082 3.375 3.375ZM10.125 3.375L10.125 3.33105Q10.125 2.87402 10.3096 2.47412Q10.4941 2.07422 10.8018 1.77539Q11.1094 1.47656 11.5181 1.30078Q11.9268 1.125 12.375 1.125Q12.832 1.125 13.2451 1.30518Q13.6582 1.48535 13.9614 1.78857Q14.2646 2.0918 14.4448 2.50488Q14.625 2.91797 14.625 3.375Q14.625 3.84082 14.4448 4.24951Q14.2646 4.6582 13.9614 4.96143Q13.6582 5.26465 13.2451 5.44482Q12.832 5.625 12.375 5.625Q11.9092 5.625 11.5005 5.44482Q11.0918 5.26465 10.7886 4.96143Q10.4854 4.6582 10.3052 4.24951Q10.125 3.84082 10.125 3.375ZM6.75 3.375Q6.75 3.14649 6.66211 2.93994Q6.57422 2.7334 6.42041 2.57959Q6.2666 2.42578 6.06006 2.33789Q5.85352 2.25 5.625 2.25Q5.3877 2.25 5.18555 2.33789Q4.9834 2.42578 4.82959 2.57959Q4.67578 2.7334 4.58789 2.93555Q4.5 3.1377 4.5 3.375Q4.5 3.6123 4.58789 3.81885Q4.67578 4.02539 4.8252 4.1748Q4.97461 4.32422 5.18115 4.41211Q5.38769 4.5 5.625 4.5Q5.8623 4.5 6.06445 4.41211Q6.2666 4.32422 6.42041 4.17041Q6.57422 4.0166 6.66211 3.81445Q6.75 3.61231 6.75 3.375ZM13.5 3.375Q13.5 3.14649 13.4121 2.93994Q13.3242 2.7334 13.1704 2.57959Q13.0166 2.42578 12.8101 2.33789Q12.6035 2.25 12.375 2.25Q12.1377 2.25 11.9355 2.33789Q11.7334 2.42578 11.5796 2.57959Q11.4258 2.7334 11.3379 2.93555Q11.25 3.1377 11.25 3.375Q11.25 3.6123 11.3379 3.81885Q11.4258 4.02539 11.5752 4.1748Q11.7246 4.32422 11.9312 4.41211Q12.1377 4.5 12.375 4.5Q12.6123 4.5 12.8145 4.41211Q13.0166 4.32422 13.1704 4.17041Q13.3242 4.0166 13.4121 3.81445Q13.5 3.61231 13.5 3.375ZM6.75 7.875L6.75 7.83105Q6.75 7.37402 6.93457 6.97412Q7.11914 6.57422 7.42676 6.27539Q7.73438 5.97656 8.14307 5.80078Q8.55176 5.625 9 5.625Q9.45703 5.625 9.87012 5.80518Q10.2832 5.98535 10.5864 6.28857Q10.8896 6.5918 11.0698 7.00488Q11.25 7.41797 11.25 7.875Q11.25 8.34082 11.0698 8.74951Q10.8896 9.1582 10.5864 9.46143Q10.2832 9.76465 9.87012 9.94482Q9.45703 10.125 9 10.125Q8.53418 10.125 8.12549 9.94482Q7.7168 9.76465 7.41357 9.46143Q7.11035 9.1582 6.93018 8.74951Q6.75 8.34082 6.75 7.875ZM1.125 8.4375Q1.125 8.09473 1.25684 7.78711Q1.38867 7.47949 1.62158 7.24658Q1.85449 7.01367 2.16211 6.88184Q2.46973 6.75 2.8125 6.75L5.51953 6.75Q5.34375 7.30371 5.34375 7.875L2.8125 7.875Q2.58398 7.875 2.41699 8.04199Q2.25 8.20899 2.25 8.4375Q2.25 9.31641 2.61914 9.9624Q2.98828 10.6084 3.82324 10.9512Q3.63867 11.1621 3.49805 11.4126Q3.35742 11.6631 3.26074 11.9268Q2.1709 11.4434 1.64795 10.5249Q1.125 9.60645 1.125 8.4375ZM10.125 7.875Q10.125 7.64649 10.0371 7.43994Q9.94922 7.2334 9.79541 7.07959Q9.6416 6.92578 9.43506 6.83789Q9.22851 6.75 9 6.75Q8.7627 6.75 8.56055 6.83789Q8.3584 6.92578 8.20459 7.07959Q8.05078 7.2334 7.96289 7.43555Q7.875 7.6377 7.875 7.875Q7.875 8.1123 7.96289 8.31885Q8.05078 8.52539 8.2002 8.6748Q8.34961 8.82422 8.55615 8.91211Q8.76269 9 9 9Q9.2373 9 9.43945 8.91211Q9.6416 8.82422 9.79541 8.67041Q9.94922 8.5166 10.0371 8.31445Q10.125 8.11231 10.125 7.875ZM14.1768 10.9512Q15.0117 10.6084 15.3809 9.9624Q15.75 9.31641 15.75 8.4375Q15.75 8.20899 15.583 8.04199Q15.416 7.875 15.1875 7.875L12.6563 7.875Q12.6563 7.30371 12.4805 6.75L15.1875 6.75Q15.5303 6.75 15.8379 6.88184Q16.1455 7.01367 16.3784 7.24658Q16.6113 7.47949 16.7432 7.78711Q16.875 8.09473 16.875 8.4375Q16.875 9.60645 16.3521 10.5249Q15.8291 11.4434 14.7393 11.9268Q14.6426 11.6631 14.502 11.4126Q14.3613 11.1621 14.1768 10.9512ZM4.5 12.9375Q4.5 12.5947 4.63184 12.2871Q4.76367 11.9795 4.99658 11.7466Q5.22949 11.5137 5.53711 11.3818Q5.84473 11.25 6.1875 11.25L11.8125 11.25Q12.1553 11.25 12.4629 11.3818Q12.7705 11.5137 13.0034 11.7466Q13.2363 11.9795 13.3682 12.2871Q13.5 12.5947 13.5 12.9375Q13.5 13.957 13.1484 14.6953Q12.7969 15.4336 12.1904 15.9214Q11.584 16.4092 10.7622 16.6421Q9.94043 16.875 9 16.875Q8.05957 16.875 7.23779 16.6421Q6.41602 16.4092 5.80957 15.9214Q5.20313 15.4336 4.85156 14.6953Q4.5 13.957 4.5 12.9375ZM12.375 12.9375Q12.375 12.709 12.208 12.542Q12.041 12.375 11.8125 12.375L6.1875 12.375Q5.95898 12.375 5.79199 12.542Q5.625 12.709 5.625 12.9375Q5.625 13.7197 5.88867 14.2559Q6.15234 14.792 6.60498 15.126Q7.05762 15.46 7.67285 15.605Q8.28808 15.75 9 15.75Q9.71191 15.75 10.3271 15.605Q10.9424 15.46 11.395 15.126Q11.8477 14.792 12.1113 14.2559Q12.375 13.7197 12.375 12.9375Z" />
  </g>
</svg>