<?xml version="1.0" encoding="utf-8"?>
<svg width="18px" height="18px" viewBox="0 0 18 18" version="1.1" xmlns:xlink="http://www.w3.org/1999/xlink" xmlns="http://www.w3.org/2000/svg">
  <desc>Created with Lunacy</desc>
  <g id="" fill="#FFFFFF">
    <path d="M3.375 14.625L2.75098 14.625Q2.19727 14.625 1.69629 14.4009Q1.19531 14.1768 0.821777 13.8032Q0.448242 13.4297 0.224121 12.9287Q0 12.4277 0 11.874L0 3.87598Q0 3.32227 0.224121 2.82129Q0.448242 2.32031 0.821777 1.94678Q1.19531 1.57324 1.69629 1.34912Q2.19727 1.125 2.75098 1.125L15.249 1.125Q15.8027 1.125 16.3037 1.34912Q16.8047 1.57324 17.1782 1.94678Q17.5518 2.32031 17.7759 2.82129Q18 3.32227 18 3.87598L18 11.874Q18 12.4453 17.7715 12.9463Q17.543 13.4473 17.1563 13.8208Q16.7695 14.1943 16.2598 14.4097Q15.75 14.625 15.1875 14.625L9.73828 14.625L5.22949 17.7803C5.03613 17.9209 4.81348 17.9912 4.56152 17.9912Q4.31543 17.9912 4.1001 17.8989Q3.88477 17.8066 3.72217 17.6484Q3.55957 17.4902 3.46729 17.2749Q3.375 17.0596 3.375 16.8135L3.375 14.625ZM16.875 11.8125L16.875 3.9375Q16.875 3.59473 16.7432 3.28711Q16.6113 2.97949 16.3784 2.74658Q16.1455 2.51367 15.8379 2.38184Q15.5303 2.25 15.1875 2.25L2.8125 2.25Q2.46973 2.25 2.16211 2.38184Q1.85449 2.51367 1.62158 2.74658Q1.38867 2.97949 1.25684 3.28711Q1.125 3.59473 1.125 3.9375L1.125 11.8125Q1.125 12.1553 1.25684 12.4629Q1.38867 12.7705 1.62158 13.0034Q1.85449 13.2363 2.16211 13.3682Q2.46973 13.5 2.8125 13.5L3.9375 13.5Q4.16602 13.5 4.33301 13.667Q4.5 13.834 4.5 14.0625L4.5 16.8135L9.2373 13.6055Q9.37793 13.5 9.5625 13.5L15.1875 13.5Q15.5303 13.5 15.8379 13.3682Q16.1455 13.2363 16.3784 13.0034Q16.6113 12.7705 16.7432 12.4629Q16.875 12.1553 16.875 11.8125Z" />
  </g>
</svg>