<?xml version="1.0" encoding="utf-8"?>
<svg width="18px" height="18px" viewBox="0 0 18 18" version="1.1" xmlns:xlink="http://www.w3.org/1999/xlink" xmlns="http://www.w3.org/2000/svg">
  <desc>Created with Lunacy</desc>
  <g id="" fill="#FFFFFF">
    <path d="M0 17.4375Q0 17.209 0.074707 16.9629Q0.149414 16.7168 0.202148 16.4971Q0.351563 15.873 0.518555 15.2578L0.729492 14.4316Q0.896484 13.8164 1.0459 13.1924Q0.527344 12.2256 0.263672 11.1709Q0 10.1162 0 9.01758Q0 7.77832 0.320801 6.62256Q0.641602 5.4668 1.22607 4.46484Q1.81055 3.46289 2.63232 2.64111Q3.4541 1.81934 4.45605 1.23047Q5.45801 0.641602 6.60938 0.320801Q7.76074 1.90735e-06 9 0Q10.2393 0 11.3862 0.320801Q12.5332 0.641602 13.5352 1.23047Q14.5371 1.81934 15.3589 2.63672Q16.1807 3.4541 16.7695 4.45605Q17.3584 5.45801 17.6792 6.60498Q18 7.75195 18 8.99121Q18 10.2217 17.6792 11.3687Q17.3584 12.5156 16.7783 13.5176Q16.1982 14.5195 15.3809 15.3457Q14.5635 16.1719 13.5659 16.7607Q12.5684 17.3496 11.4258 17.6748Q10.2832 18 9.04395 18Q7.9541 18 6.89941 17.7495Q5.84473 17.499 4.87793 16.998L0.694336 17.9824C0.635742 17.9941 0.591797 18 0.5625 18Q0.325195 18 0.162598 17.8374Q0 17.6748 0 17.4375ZM8.96484 16.875Q10.0547 16.875 11.0654 16.5938Q12.0762 16.3125 12.9551 15.8027Q13.834 15.293 14.5591 14.5767Q15.2842 13.8604 15.7983 12.9814Q16.3125 12.1025 16.5938 11.0918Q16.875 10.0811 16.875 8.99121Q16.875 7.90137 16.5938 6.89502Q16.3125 5.88867 15.7983 5.01855Q15.2842 4.14844 14.5635 3.42773Q13.8428 2.70703 12.9639 2.19727Q12.085 1.6875 11.0786 1.40625Q10.0723 1.125 8.99121 1.125Q7.91016 1.125 6.90381 1.40625Q5.89746 1.6875 5.02295 2.19727Q4.14844 2.70703 3.43213 3.42334Q2.71582 4.13965 2.20166 5.00977Q1.6875 5.87988 1.40625 6.88623Q1.125 7.89258 1.125 8.97363Q1.125 9.54492 1.19531 10.0283Q1.26563 10.5117 1.39746 10.9731Q1.5293 11.4346 1.71387 11.8916Q1.89844 12.3486 2.13574 12.8496Q2.20605 12.9902 2.20605 13.1221Q2.20605 13.2188 2.15332 13.4824Q2.10059 13.7461 2.0127 14.0889Q1.9248 14.4316 1.82373 14.8271Q1.72266 15.2227 1.62598 15.583Q1.5293 15.9434 1.4502 16.2378Q1.37109 16.5322 1.33594 16.6729Q1.93359 16.5322 2.51807 16.3916Q3.10254 16.251 3.7002 16.1016Q3.99902 16.0313 4.32422 15.9346Q4.64941 15.8379 4.95703 15.8379Q5.02734 15.8379 5.08887 15.8599Q5.15039 15.8818 5.2207 15.9082Q5.69531 16.1279 6.13916 16.3081Q6.58301 16.4883 7.03125 16.6113Q7.47949 16.7344 7.9541 16.8047Q8.42871 16.875 8.96484 16.875ZM6.1875 7.875Q5.95898 7.875 5.79199 7.70801Q5.625 7.54102 5.625 7.3125Q5.625 7.08399 5.79199 6.91699Q5.95898 6.75 6.1875 6.75L11.8125 6.75Q12.041 6.75 12.208 6.91699Q12.375 7.08399 12.375 7.3125Q12.375 7.54102 12.208 7.70801Q12.041 7.875 11.8125 7.875L6.1875 7.875ZM6.1875 11.25Q5.95898 11.25 5.79199 11.083Q5.625 10.916 5.625 10.6875Q5.625 10.459 5.79199 10.292Q5.95898 10.125 6.1875 10.125L9.5625 10.125Q9.79101 10.125 9.95801 10.292Q10.125 10.459 10.125 10.6875Q10.125 10.916 9.95801 11.083Q9.79101 11.25 9.5625 11.25L6.1875 11.25Z" />
  </g>
</svg>