<?xml version="1.0" encoding="utf-8"?>
<svg width="18px" height="18px" viewBox="0 0 18 18" version="1.1" xmlns:xlink="http://www.w3.org/1999/xlink" xmlns="http://www.w3.org/2000/svg">
  <desc>Created with Lunacy</desc>
  <g id="" fill="#FFFFFF">
    <path d="M6.87305 10.7402Q6.87305 10.6875 6.92578 10.4458Q6.97852 10.2041 7.06201 9.86572Q7.14551 9.52734 7.24658 9.13623Q7.34766 8.74512 7.43994 8.38916Q7.53223 8.0332 7.60254 7.76074Q7.67285 7.48828 7.69922 7.3916Q7.75195 7.16309 7.91895 6.99609L14.2646 0.650391Q14.915 1.90735e-06 15.8291 0Q16.2773 0 16.6729 0.162598Q17.0684 0.325195 17.3628 0.615234Q17.6572 0.905273 17.8286 1.29639Q18 1.6875 18 2.13574Q18 2.61914 17.8242 3.07178Q17.6484 3.52442 17.3057 3.86719L11.0479 10.125Q10.8809 10.292 10.6523 10.3447Q10.5469 10.3711 10.2744 10.4414Q10.002 10.5117 9.646 10.604Q9.29004 10.6963 8.90332 10.7974Q8.5166 10.8984 8.17822 10.9819Q7.83984 11.0654 7.59375 11.1182Q7.34766 11.1709 7.28613 11.1709Q7.10156 11.1709 6.9873 11.0435Q6.87305 10.916 6.87305 10.7402ZM3.87598 16.875Q3.32227 16.875 2.82129 16.6509Q2.32031 16.4268 1.94678 16.0532Q1.57324 15.6797 1.34912 15.1787Q1.125 14.6777 1.125 14.124L1.125 3.87598Q1.125 3.32227 1.34912 2.82129Q1.57324 2.32031 1.94678 1.94678Q2.32031 1.57324 2.82129 1.34912Q3.32227 1.125 3.87598 1.125L10.6875 1.125Q10.916 1.125 11.083 1.29199Q11.25 1.45899 11.25 1.6875Q11.25 1.91602 11.083 2.08301Q10.916 2.25 10.6875 2.25L3.9375 2.25Q3.59473 2.25 3.28711 2.38184Q2.97949 2.51367 2.74658 2.74658Q2.51367 2.97949 2.38184 3.28711Q2.25 3.59473 2.25 3.9375L2.25 14.0625Q2.25 14.4053 2.38184 14.7129Q2.51367 15.0205 2.74658 15.2534Q2.97949 15.4863 3.28711 15.6182Q3.59473 15.75 3.9375 15.75L14.0625 15.75Q14.4053 15.75 14.7129 15.6182Q15.0205 15.4863 15.2534 15.2534Q15.4863 15.0205 15.6182 14.7129Q15.75 14.4053 15.75 14.0625L15.75 7.3125Q15.75 7.08399 15.917 6.91699Q16.084 6.75 16.3125 6.75Q16.541 6.75 16.708 6.91699Q16.875 7.08399 16.875 7.3125L16.875 14.124Q16.875 14.6777 16.6509 15.1787Q16.4268 15.6797 16.0532 16.0532Q15.6797 16.4268 15.1787 16.6509Q14.6777 16.875 14.124 16.875L3.87598 16.875ZM8.25293 9.79102L10.3096 9.27246L16.5059 3.07617Q16.6904 2.8916 16.7827 2.6499Q16.875 2.4082 16.875 2.15332Q16.875 1.93359 16.7915 1.74463Q16.708 1.55567 16.5674 1.41943Q16.4268 1.28321 16.2378 1.2041Q16.0488 1.125 15.8291 1.125Q15.3809 1.125 15.0645 1.44141L8.77148 7.73438L8.25293 9.79102Z" />
  </g>
</svg>