<?xml version="1.0" encoding="utf-8"?>
<svg width="18px" height="18px" viewBox="0 0 18 18" version="1.1" xmlns:xlink="http://www.w3.org/1999/xlink" xmlns="http://www.w3.org/2000/svg">
  <desc>Created with Lunacy</desc>
  <g id="îª" fill="#FFFFFF">
    <path d="M6.1875 14.6338L2.25 14.6338Q2.02148 14.6338 1.81494 14.5459Q1.6084 14.458 1.45898 14.3042Q1.30957 14.1504 1.22168 13.9438Q1.13379 13.7373 1.13379 13.5Q1.13379 13.3857 1.15137 13.2803Q1.16895 13.1748 1.21289 13.0693L2.25 10.5732L2.25 6.45117L2.25879 6.32813Q2.25879 6.29297 2.25879 6.2666Q2.29395 5.37012 2.56201 4.55273Q2.83008 3.73535 3.28271 3.04102Q3.73535 2.34668 4.35498 1.78418Q4.97461 1.22168 5.71289 0.826172Q6.45117 0.430664 7.28174 0.215332Q8.1123 1.90735e-06 9 0Q9.85254 0 10.6611 0.197754Q11.4697 0.395508 12.1992 0.777832Q12.9287 1.16016 13.5571 1.71387Q14.1855 2.26758 14.6602 2.9707Q15.1084 3.62988 15.3984 4.4209Q15.6885 5.21191 15.7324 6.02051Q15.7412 6.14355 15.7456 6.27539Q15.75 6.40723 15.75 6.53027L15.75 10.5732L16.7871 13.0693Q16.875 13.2715 16.875 13.5088Q16.875 13.7373 16.7827 13.9395Q16.6904 14.1416 16.5366 14.2954Q16.3828 14.4492 16.1763 14.5415Q15.9697 14.6338 15.75 14.6338L11.8125 14.6338Q11.7861 15.2227 11.5708 15.7324Q11.3555 16.2422 10.9819 16.6201Q10.6084 16.998 10.103 17.2178Q9.59766 17.4375 9 17.4375Q8.40234 17.4375 7.89697 17.2178Q7.3916 16.998 7.01807 16.6201Q6.64453 16.2422 6.4292 15.7324Q6.21387 15.2227 6.1875 14.6338ZM15.75 13.5088Q15.7148 13.4209 15.6138 13.1924Q15.5127 12.9639 15.3896 12.6694Q15.2666 12.375 15.1304 12.0498Q14.9941 11.7246 14.8843 11.4434Q14.7744 11.1621 14.6997 10.9556Q14.625 10.749 14.625 10.6875L14.625 6.53906Q14.625 5.7832 14.4229 5.08447Q14.2207 4.38574 13.8516 3.7793Q13.4824 3.17285 12.9507 2.67627Q12.4189 2.17969 11.7598 1.81934Q10.4766 1.125 9 1.125Q8.29687 1.125 7.62012 1.2876Q6.94336 1.4502 6.33691 1.76221Q5.73047 2.07422 5.20752 2.53125Q4.68457 2.98828 4.28027 3.56836Q3.91113 4.11328 3.67383 4.75488Q3.43652 5.39649 3.39258 6.05566Q3.38379 6.17871 3.37939 6.29297Q3.375 6.40723 3.375 6.53027L3.375 10.6875Q3.375 10.749 3.30029 10.9556Q3.22559 11.1621 3.11572 11.4434Q3.00586 11.7246 2.86963 12.0498Q2.7334 12.375 2.61035 12.6694Q2.4873 12.9639 2.38623 13.1924Q2.28516 13.4209 2.25 13.5088L15.75 13.5088ZM9 16.3125Q9.35156 16.3125 9.65479 16.1807Q9.95801 16.0488 10.1821 15.8203Q10.4063 15.5918 10.5381 15.2886Q10.6699 14.9854 10.6875 14.6338L7.3125 14.6338Q7.32129 14.9854 7.45313 15.2886Q7.58496 15.5918 7.80908 15.8203Q8.0332 16.0488 8.34082 16.1807Q8.64844 16.3125 9 16.3125Z" />
  </g>
</svg>