<?xml version="1.0" encoding="utf-8"?>
<svg width="18px" height="18px" viewBox="0 0 18 18" version="1.1" xmlns:xlink="http://www.w3.org/1999/xlink" xmlns="http://www.w3.org/2000/svg">
  <desc>Created with Lunacy</desc>
  <g id="" fill="#FFFFFF">
    <path d="M8.91211 18Q7.68164 17.9912 6.54346 17.666Q5.40527 17.3408 4.4165 16.7476Q3.42773 16.1543 2.61035 15.3325Q1.79297 14.5107 1.21289 13.5132Q0.632813 12.5156 0.316406 11.373Q0 10.2305 0 9Q0 7.76074 0.320801 6.60938Q0.641602 5.45801 1.23047 4.46045Q1.81934 3.46289 2.64111 2.64111Q3.46289 1.81934 4.46045 1.23047Q5.45801 0.641602 6.60938 0.320801Q7.76074 1.90735e-06 9 0Q10.2217 0 11.3643 0.320801Q12.5068 0.641602 13.5044 1.22168Q14.502 1.80176 15.3281 2.61475Q16.1543 3.42774 16.7432 4.4165Q17.332 5.40527 17.6616 6.54346Q17.9912 7.68164 18 8.91211Q17.7275 8.57813 17.4243 8.28369Q17.1211 7.98926 16.7695 7.73438Q16.7256 7.47949 16.6685 7.23779Q16.6113 6.99609 16.541 6.75Q16.4004 6.75 16.2598 6.75L15.6797 6.75879L15.1172 6.75879Q14.9766 6.75879 14.8271 6.75Q14.7832 6.75 14.7041 6.73242Q14.625 6.71484 14.5327 6.68848Q14.4404 6.66211 14.3525 6.63574Q14.2646 6.60938 14.2119 6.5918Q13.8955 6.53027 13.5791 6.49951Q13.2627 6.46875 12.9375 6.46875L12.9287 6.46875Q12.7441 6.46875 12.5596 6.48193Q12.375 6.49512 12.1904 6.5127Q11.7949 6.55664 11.417 6.64453Q11.3203 6.6709 11.2324 6.71045Q11.1445 6.75 11.0479 6.75L5.77441 6.75Q5.7041 7.3125 5.66455 7.87061Q5.625 8.42871 5.625 9Q5.625 9.57129 5.66455 10.1294Q5.7041 10.6875 5.77441 11.25L6.68848 11.25Q6.60938 11.5313 6.56543 11.8125Q6.52148 12.0938 6.49512 12.375L5.96777 12.375Q6.06445 12.8232 6.1875 13.2583Q6.31055 13.6934 6.47754 14.1152Q6.50391 14.1768 6.53027 14.2471L6.61816 14.4404Q6.66211 14.5459 6.69727 14.6426Q6.75 14.7832 6.78955 14.9238Q6.8291 15.0645 6.88184 15.2139Q7.03125 15.6357 7.24658 16.0225Q7.46191 16.4092 7.72559 16.7695L7.73438 16.7695Q7.98926 17.1211 8.28369 17.4243Q8.57813 17.7275 8.91211 18ZM12.0322 5.625Q11.9619 5.2998 11.8301 4.83838Q11.6982 4.37695 11.5049 3.88037Q11.3115 3.38379 11.0566 2.88721Q10.8018 2.39063 10.4854 1.99951Q10.1689 1.6084 9.7998 1.3667Q9.43066 1.125 9 1.125Q8.56933 1.125 8.2002 1.3667Q7.83105 1.6084 7.51465 1.99951Q7.19824 2.39063 6.94336 2.88721Q6.68848 3.38379 6.49512 3.88037Q6.30176 4.37695 6.16992 4.83838Q6.03809 5.2998 5.96777 5.625L12.0322 5.625ZM1.88965 5.625L4.81641 5.625Q4.92188 5.10645 5.06689 4.56592Q5.21191 4.02539 5.40967 3.49805Q5.60742 2.97071 5.8623 2.47852Q6.11719 1.98633 6.44238 1.55566Q5.69531 1.81055 5.01855 2.21045Q4.3418 2.61035 3.75732 3.1333Q3.17285 3.65625 2.69824 4.28467Q2.22363 4.91309 1.88965 5.625ZM16.1104 5.625Q15.7676 4.9043 15.293 4.27588Q14.8184 3.64746 14.2383 3.12891Q13.6582 2.61035 12.9814 2.21484Q12.3047 1.81934 11.5576 1.55566Q11.8828 1.98633 12.1377 2.47852Q12.3926 2.97071 12.5903 3.49805Q12.7881 4.02539 12.9331 4.56592Q13.0781 5.10645 13.1836 5.625L16.1104 5.625ZM4.63184 11.25Q4.5 10.1338 4.5 9Q4.5 8.42871 4.53076 7.87061Q4.56152 7.3125 4.64063 6.75L1.4502 6.75Q1.125 7.83105 1.125 9Q1.125 10.1689 1.4502 11.25L4.63184 11.25ZM18 12.9375Q18 13.9834 17.6001 14.9063Q17.2002 15.8291 16.5146 16.5146Q15.8291 17.2002 14.9063 17.6001Q13.9834 18 12.9375 18Q11.8828 18 10.96 17.6045Q10.0371 17.209 9.35156 16.5234Q8.66602 15.8379 8.27051 14.915Q7.875 13.9922 7.875 12.9375Q7.875 11.8916 8.2749 10.9688Q8.6748 10.0459 9.36035 9.36035Q10.0459 8.6748 10.9688 8.2749Q11.8916 7.875 12.9375 7.875Q13.6318 7.875 14.2778 8.05518Q14.9238 8.23535 15.4863 8.56494Q16.0488 8.89453 16.5146 9.36035Q16.9805 9.82617 17.3101 10.3887Q17.6396 10.9512 17.8198 11.5972Q18 12.2432 18 12.9375ZM9.79102 15.293L15.293 9.79102Q14.7568 9.37793 14.1504 9.18896Q13.5439 9 12.8672 9Q12.0937 9 11.395 9.31641Q10.6963 9.63281 10.1646 10.1646Q9.63281 10.6963 9.31641 11.395Q9 12.0938 9 12.8672Q9 13.5439 9.18896 14.1504Q9.37793 14.7568 9.79102 15.293ZM16.084 10.582L10.582 16.084Q11.1182 16.4971 11.7246 16.686Q12.3311 16.875 13.0078 16.875Q13.7813 16.875 14.48 16.5586Q15.1787 16.2422 15.7104 15.7104Q16.2422 15.1787 16.5586 14.48Q16.875 13.7813 16.875 13.0078Q16.875 12.3311 16.686 11.7246Q16.4971 11.1182 16.084 10.582ZM1.88965 12.375Q2.22363 13.0869 2.69824 13.7153Q3.17285 14.3438 3.75293 14.8667Q4.33301 15.3896 5.00977 15.7896Q5.68652 16.1895 6.43359 16.4443Q6.11719 16.0049 5.8623 15.5127Q5.60742 15.0205 5.40967 14.4976Q5.21191 13.9746 5.06689 13.4385Q4.92188 12.9023 4.81641 12.375L1.88965 12.375Z" />
  </g>
</svg>