<?xml version="1.0" encoding="utf-8"?>
<svg width="19px" height="19px" viewBox="0 0 19 19" version="1.1" xmlns:xlink="http://www.w3.org/1999/xlink" xmlns="http://www.w3.org/2000/svg">
  <desc>Created with Lunacy</desc>
  <defs>
    <path d="M0 0L18.9217 0L18.9217 18.9217L0 18.9217L0 0Z" id="path_1" />
    <clipPath id="mask_1">
      <use xlink:href="#path_1" />
    </clipPath>
  </defs>
  <g id="eye-states" opacity="0.75">
    <g id="Group">
      <path d="M0 0L18.9217 0L18.9217 18.9217L0 18.9217L0 0Z" id="Rectangle" fill="none" stroke="none" />
      <g clip-path="url(#mask_1)">
        <g id="Group" transform="translate(0 2.365204)">
          <g id="Group">
            <path d="M9.46086 0C12.1255 0 14.4583 1.28706 16.4418 3.4028C17.1233 4.12967 17.7151 4.9058 18.2167 5.6824L18.4045 5.97997L18.6333 6.36402L18.7502 6.57388L18.8385 6.74306C18.9495 6.96502 18.9495 7.22628 18.8385 7.44823C18.8262 7.47287 18.8127 7.49932 18.798 7.52754L18.6954 7.71746L18.5642 7.94648L18.4045 8.21132L18.2167 8.50886C17.7151 9.28553 17.1233 10.0616 16.4418 10.7885C14.4583 12.9042 12.1255 14.1913 9.46086 14.1913C6.79621 14.1913 4.4634 12.9042 2.4799 10.7885C1.79846 10.0616 1.20666 9.28553 0.705098 8.50886L0.517178 8.21132L0.288398 7.82728L0.171491 7.61741L0.0832343 7.44823C-0.0277447 7.22628 -0.0277447 6.96502 0.0832343 6.74306C0.0955476 6.71843 0.109062 6.69197 0.123772 6.66376L0.226372 6.47383L0.357553 6.24485L0.517178 5.97997L0.705098 5.6824C1.20666 4.9058 1.79846 4.12967 2.4799 3.4028C4.4634 1.28706 6.79621 0 9.46086 0ZM3.6302 4.48124C5.34235 2.65496 7.29649 1.57681 9.46083 1.57681C11.6252 1.57681 13.5793 2.65496 15.2915 4.48124C15.9035 5.13407 16.4389 5.83621 16.892 6.53786L17.0064 6.71796L17.1126 6.89058L17.2329 7.09565L17.1126 7.30071C17.0446 7.4132 16.9711 7.53102 16.892 7.65343C16.4389 8.35506 15.9035 9.05719 15.2915 9.71009C13.5793 11.5363 11.6252 12.6145 9.46083 12.6145C7.29649 12.6145 5.34235 11.5363 3.6302 9.71009C3.01818 9.05719 2.4828 8.35506 2.02965 7.65343L1.9152 7.47334L1.80905 7.30071L1.68794 7.09565L1.80905 6.89058C1.87704 6.7781 1.9506 6.66028 2.02965 6.53786C2.4828 5.83621 3.01818 5.13407 3.6302 4.48124ZM9.46081 3.94205C11.2026 3.94205 12.6144 5.35395 12.6144 7.09566C12.6144 8.8374 11.2026 10.2493 9.46081 10.2493C7.71907 10.2493 6.30721 8.8374 6.30721 7.09566C6.30721 5.35395 7.7191 3.94205 9.46081 3.94205ZM7.88409 7.09565C7.88409 6.22478 8.59004 5.51883 9.46092 5.51883C10.3318 5.51883 11.0377 6.22478 11.0377 7.09565C11.0377 7.96653 10.3318 8.67247 9.46092 8.67247C8.59004 8.67247 7.88409 7.96653 7.88409 7.09565Z" id="Shape" fill="#FFFFFF" fill-rule="evenodd" stroke="none" />
          </g>
        </g>
      </g>
    </g>
  </g>
</svg>