<?xml version="1.0" encoding="utf-8"?>
<svg width="18px" height="18px" viewBox="0 0 18 18" version="1.1" xmlns:xlink="http://www.w3.org/1999/xlink" xmlns="http://www.w3.org/2000/svg">
  <desc>Created with Lunacy</desc>
  <g id="" fill="#FFFFFF">
    <path d="M7.75195 15.75Q7.93652 16.3477 8.2793 16.875L4.42969 16.875Q3.77051 16.875 3.16846 16.6069Q2.56641 16.3389 2.11377 15.8862Q1.66113 15.4336 1.39307 14.8315Q1.125 14.2295 1.125 13.5703L1.125 4.42969Q1.125 3.77051 1.39307 3.16846Q1.66113 2.56641 2.11377 2.11377Q2.56641 1.66113 3.16846 1.39307Q3.77051 1.125 4.42969 1.125L13.5703 1.125Q14.2295 1.125 14.8315 1.39307Q15.4336 1.66113 15.8862 2.11377Q16.3389 2.56641 16.6069 3.16846Q16.875 3.77051 16.875 4.42969L16.875 5.91504Q16.6465 5.60742 16.3608 5.34375Q16.0752 5.08008 15.75 4.86914L15.75 4.45605Q15.75 4.0166 15.5698 3.6167Q15.3896 3.2168 15.0864 2.91357Q14.7832 2.61035 14.3833 2.43018Q13.9834 2.25 13.5439 2.25L4.45605 2.25Q4.00781 2.25 3.60352 2.43457Q3.19922 2.61914 2.90039 2.92676Q2.60156 3.23438 2.42578 3.64307Q2.25 4.05176 2.25 4.5L11.9795 4.5Q11.0215 4.86035 10.3535 5.625L2.25 5.625L2.25 13.5439Q2.25 14.001 2.43457 14.4009Q2.61914 14.8008 2.92676 15.0996Q3.23437 15.3984 3.64307 15.5742Q4.05176 15.75 4.5 15.75L7.75195 15.75ZM16.3125 8.49902Q16.3125 9.07031 16.084 9.57129Q15.8555 10.0723 15.4688 10.4458Q15.082 10.8193 14.5723 11.0347Q14.0625 11.25 13.5 11.25Q12.9111 11.25 12.4014 11.0303Q11.8916 10.8105 11.5093 10.4282Q11.127 10.0459 10.9072 9.53613Q10.6875 9.02637 10.6875 8.4375Q10.6875 7.84863 10.9072 7.33887Q11.127 6.8291 11.5093 6.44678Q11.8916 6.06445 12.4014 5.84473Q12.9111 5.625 13.5 5.625Q14.1064 5.625 14.6206 5.84912Q15.1348 6.07324 15.5127 6.46436Q15.8906 6.85547 16.1016 7.37842Q16.3125 7.90137 16.3125 8.49902ZM18 14.625Q18 15.1875 17.8022 15.6577Q17.6045 16.1279 17.2661 16.5015Q16.9277 16.875 16.4795 17.1563Q16.0312 17.4375 15.5303 17.6265Q15.0293 17.8154 14.5063 17.9077Q13.9834 18 13.5 18Q13.0342 18 12.52 17.9077Q12.0059 17.8154 11.5049 17.6309Q11.0039 17.4463 10.5513 17.1694Q10.0986 16.8926 9.75146 16.5234Q9.4043 16.1543 9.20215 15.6973Q9 15.2402 9 14.6953L9 14.2031Q9 13.8252 9.14063 13.4912Q9.28125 13.1572 9.53174 12.9067Q9.78223 12.6563 10.1118 12.5156Q10.4414 12.375 10.8281 12.375L16.1719 12.375Q16.5498 12.375 16.8838 12.52Q17.2178 12.665 17.4639 12.9111Q17.71 13.1572 17.855 13.4912Q18 13.8252 18 14.2031L18 14.625Z" />
  </g>
</svg>