<?xml version="1.0" encoding="utf-8"?>
<svg width="18px" height="18px" viewBox="0 0 18 18" version="1.1" xmlns:xlink="http://www.w3.org/1999/xlink" xmlns="http://www.w3.org/2000/svg">
  <desc>Created with Lunacy</desc>
  <g id="" fill="#FFFFFF">
    <path d="M9.84375 18Q9.35156 18 8.9209 17.8286Q8.49023 17.6572 8.15625 17.354Q7.82227 17.0508 7.60693 16.6421Q7.3916 16.2334 7.33008 15.75L5.0625 15.75Q4.71094 15.75 4.40332 15.6182Q4.0957 15.4863 3.86719 15.2534Q3.63867 15.0205 3.50684 14.7129Q3.375 14.4053 3.375 14.0625L3.375 11.5137L3.31348 11.5137Q2.84766 11.4521 2.44775 11.228Q2.04785 11.0039 1.75342 10.6655Q1.45898 10.3271 1.29199 9.89648Q1.125 9.46582 1.125 9Q1.125 8.5166 1.29639 8.08154Q1.46777 7.64648 1.771 7.3125Q2.07422 6.97852 2.48291 6.76318Q2.8916 6.54785 3.375 6.48633L3.375 3.9375Q3.375 3.59473 3.50684 3.28711Q3.63867 2.97949 3.87158 2.74658Q4.10449 2.51367 4.41211 2.38184Q4.71973 2.25 5.0625 2.25L7.89258 2.25Q7.94531 1.77539 8.16504 1.3667Q8.38476 0.958008 8.72314 0.654785Q9.06152 0.351563 9.49219 0.175781Q9.92285 1.90735e-06 10.4063 0Q10.8896 0 11.3247 0.171387Q11.7598 0.342773 12.0938 0.645996Q12.4277 0.949219 12.6431 1.35791Q12.8584 1.7666 12.9199 2.25L15.1875 2.25Q15.5303 2.25 15.8379 2.38184Q16.1455 2.51367 16.3784 2.74658Q16.6113 2.97949 16.7432 3.28711Q16.875 3.59473 16.875 3.9375L16.875 7.59375L14.9063 7.59375Q14.6162 7.59375 14.3613 7.70361Q14.1064 7.81348 13.9131 8.00684Q13.7197 8.2002 13.6099 8.45508Q13.5 8.70996 13.5 9Q13.5 9.29004 13.6099 9.54492Q13.7197 9.79981 13.9131 9.99316Q14.1064 10.1865 14.3613 10.2964Q14.6162 10.4063 14.9063 10.4063L16.875 10.4063L16.875 14.0625Q16.875 14.4053 16.7432 14.7129Q16.6113 15.0205 16.3784 15.2534Q16.1455 15.4863 15.8379 15.6182Q15.5303 15.75 15.1875 15.75L12.3574 15.75L12.3574 15.8115Q12.2959 16.2773 12.0718 16.6772Q11.8477 17.0771 11.5093 17.3716Q11.1709 17.666 10.7402 17.833Q10.3096 18 9.84375 18ZM11.25 14.625L15.1875 14.625Q15.4248 14.625 15.5874 14.4624Q15.75 14.2998 15.75 14.0625L15.75 11.5313Q15.6797 11.5313 15.6006 11.5313L15.293 11.54Q15.2227 11.54 15.1436 11.54Q15.0293 11.54 14.9194 11.5356Q14.8096 11.5313 14.6953 11.5225Q14.2207 11.4961 13.7988 11.2808Q13.377 11.0654 13.0605 10.7227Q12.7441 10.3799 12.5596 9.93604Q12.375 9.49219 12.375 9.01758Q12.375 8.49902 12.5684 8.0376Q12.7617 7.57617 13.0957 7.2334Q13.4297 6.89063 13.8823 6.68408Q14.335 6.47754 14.8623 6.46875L15.75 6.46875L15.75 3.9375Q15.75 3.70899 15.583 3.54199Q15.416 3.375 15.1875 3.375L11.8125 3.375L11.8125 2.53125Q11.8125 2.24121 11.6982 1.98633Q11.584 1.73145 11.395 1.54248Q11.2061 1.35352 10.9512 1.23926Q10.6963 1.125 10.4063 1.125Q10.1162 1.125 9.86133 1.23926Q9.60645 1.35352 9.41748 1.54248Q9.22852 1.73145 9.11426 1.98633Q9 2.24121 9 2.53125L9 3.375L5.0625 3.375Q4.83398 3.375 4.66699 3.54199Q4.5 3.70899 4.5 3.9375L4.5 7.59375L3.65625 7.59375Q3.36621 7.59375 3.11133 7.70801Q2.85645 7.82227 2.66748 8.01123Q2.47852 8.2002 2.36426 8.45508Q2.25 8.70996 2.25 9Q2.25 9.29004 2.36426 9.54492Q2.47852 9.79981 2.66748 9.98877Q2.85645 10.1777 3.11133 10.292Q3.36621 10.4063 3.65625 10.4063L4.5 10.4063L4.5 14.0625Q4.5 14.291 4.66699 14.458Q4.83398 14.625 5.0625 14.625L8.4375 14.625L8.4375 15.4688Q8.4375 15.7588 8.55176 16.0137Q8.66601 16.2686 8.85498 16.4575Q9.04394 16.6465 9.29883 16.7607Q9.55371 16.875 9.84375 16.875Q10.1338 16.875 10.3887 16.7607Q10.6436 16.6465 10.8325 16.4575Q11.0215 16.2686 11.1357 16.0137Q11.25 15.7588 11.25 15.4688L11.25 14.625Z" />
  </g>
</svg>