<?xml version="1.0" encoding="utf-8"?>
<svg width="18px" height="18px" viewBox="0 0 18 18" version="1.1" xmlns:xlink="http://www.w3.org/1999/xlink" xmlns="http://www.w3.org/2000/svg">
  <desc>Created with Lunacy</desc>
  <g id="î¨" fill="#FFFFFF">
    <path d="M3.94629 16.9277Q3.59473 16.9277 3.28711 16.7959Q2.97949 16.6641 2.74658 16.4355Q2.51367 16.207 2.38184 15.8994Q2.25 15.5918 2.25 15.2402L2.25 2.75977Q2.25 2.4082 2.38184 2.10059Q2.51367 1.79297 2.74219 1.56445Q2.9707 1.33594 3.27832 1.2041Q3.58594 1.07227 3.9375 1.07227Q4.14844 1.07227 4.35938 1.125Q4.57031 1.17774 4.75488 1.2832L15.9521 7.52344Q16.3564 7.75195 16.585 8.14746Q16.8135 8.54297 16.8135 9Q16.8135 9.46582 16.5894 9.85693Q16.3652 10.248 15.9521 10.4766L4.76367 16.7168Q4.5791 16.8223 4.36816 16.875Q4.15723 16.9277 3.94629 16.9277ZM15.6885 9Q15.6885 8.85059 15.6094 8.71436Q15.5303 8.57813 15.3984 8.50781L4.20996 2.26758Q4.08691 2.19727 3.9375 2.19727Q3.70898 2.19727 3.54199 2.36426Q3.375 2.53125 3.375 2.75977L3.375 15.2402Q3.375 15.4688 3.54199 15.6357Q3.70898 15.8027 3.9375 15.8027Q4.08691 15.8027 4.20996 15.7324L15.3984 9.49219Q15.5303 9.42188 15.6094 9.28564Q15.6885 9.14941 15.6885 9Z" />
  </g>
</svg>