<?xml version="1.0" encoding="utf-8"?>
<svg width="18px" height="18px" viewBox="0 0 18 18" version="1.1" xmlns:xlink="http://www.w3.org/1999/xlink" xmlns="http://www.w3.org/2000/svg">
  <desc>Created with Lunacy</desc>
  <g id="î¤" fill="#FFFFFF">
    <path d="M0 15.0469Q0 14.4492 0.224121 13.9131Q0.448242 13.377 0.870117 12.9551L6.91699 6.9082Q6.84668 6.60059 6.79834 6.27979Q6.75 5.95899 6.75 5.63379Q6.75 4.85156 6.95215 4.13086Q7.1543 3.41016 7.51904 2.78613Q7.88379 2.16211 8.39355 1.64795Q8.90332 1.13379 9.52734 0.769043Q10.1514 0.404297 10.8721 0.202148Q11.5928 1.90735e-06 12.375 0Q12.5332 0 12.8013 0.0263672Q13.0693 0.0527344 13.3813 0.105469Q13.6934 0.158203 14.0186 0.246094Q14.3437 0.333986 14.603 0.457031Q14.8623 0.580078 15.0293 0.74707Q15.1963 0.914064 15.1963 1.11621Q15.1963 1.34473 15.0293 1.51172L12.0498 4.5L13.5 5.9502L16.4883 2.9707Q16.6553 2.80371 16.8838 2.80371Q17.0947 2.80371 17.2573 2.9707Q17.4199 3.1377 17.543 3.40137Q17.666 3.66504 17.7539 3.98584Q17.8418 4.30664 17.8945 4.61865Q17.9473 4.93067 17.9736 5.19873Q18 5.4668 18 5.625Q18 6.79395 17.5605 7.81787Q17.1211 8.8418 16.3564 9.60645Q15.5918 10.3711 14.5679 10.8105Q13.5439 11.25 12.375 11.25Q12.0498 11.25 11.729 11.2017Q11.4082 11.1533 11.0918 11.083L5.04492 17.1387Q4.86035 17.3232 4.63184 17.4814Q4.40332 17.6396 4.14404 17.7583Q3.88477 17.877 3.6167 17.9429Q3.34863 18.0088 3.08496 18.0088C2.65723 18.0088 2.25586 17.937 1.88086 17.7935Q1.31836 17.5781 0.900879 17.187Q0.483398 16.7959 0.241699 16.251C0.0805664 15.8877 0 15.4863 0 15.0469ZM10.9336 9.8877Q11.0215 9.8877 11.1006 9.91406Q11.417 10.0107 11.7334 10.0679Q12.0498 10.125 12.3838 10.125Q13.3154 10.125 14.1328 9.76904Q14.9502 9.41309 15.561 8.80225Q16.1719 8.19141 16.5234 7.37402Q16.875 6.55664 16.875 5.625Q16.875 5.2998 16.8267 4.9834Q16.7783 4.66699 16.6816 4.35938L13.8955 7.14551Q13.7373 7.30371 13.5 7.30371Q13.2627 7.30371 13.1045 7.14551L10.8545 4.89551Q10.6875 4.72852 10.6875 4.5Q10.6875 4.27149 10.8545 4.10449L13.6406 1.31836Q13.333 1.22168 13.0166 1.17334Q12.7002 1.125 12.375 1.125Q11.4434 1.125 10.626 1.48096Q9.80859 1.83692 9.19775 2.44775Q8.58691 3.05859 8.23096 3.87598Q7.875 4.69336 7.875 5.625Q7.875 5.95898 7.93213 6.271Q7.98926 6.58301 8.08594 6.89941Q8.1123 6.97852 8.1123 7.06641Q8.1123 7.30371 7.94531 7.4707L1.66113 13.7549Q1.40625 14.0098 1.26563 14.3438Q1.125 14.6777 1.125 15.0469Q1.125 15.4248 1.27002 15.7544Q1.41504 16.084 1.66553 16.3345Q1.91602 16.585 2.24561 16.73Q2.5752 16.875 2.95313 16.875Q3.32227 16.875 3.65625 16.7344Q3.99023 16.5938 4.24512 16.3389L10.5293 10.0547Q10.6963 9.8877 10.9336 9.8877Z" />
  </g>
</svg>