<?xml version="1.0" encoding="utf-8"?>
<svg width="18px" height="18px" viewBox="0 0 18 18" version="1.1" xmlns:xlink="http://www.w3.org/1999/xlink" xmlns="http://www.w3.org/2000/svg">
  <desc>Created with Lunacy</desc>
  <g id="" fill="#FFFFFF">
    <path d="M5.28223 14.3877Q4.97461 14.3877 4.67578 14.502Q4.45605 14.5898 4.22754 14.6865L3.9375 14.8096Q3.71777 14.9063 3.48926 14.9941Q3.19043 15.1084 2.88281 15.1084Q2.61914 15.1084 2.39941 14.9985Q2.17969 14.8887 2.00391 14.6865Q1.88965 14.5547 1.73584 14.335Q1.58203 14.1152 1.41504 13.8516Q1.24805 13.5879 1.08105 13.2935Q0.914062 12.999 0.786621 12.7222Q0.65918 12.4453 0.580078 12.1992Q0.500977 11.9531 0.500977 11.7861Q0.500977 11.4697 0.65918 11.2192Q0.817383 10.9688 1.05029 10.7622Q1.2832 10.5557 1.56006 10.3711Q1.83691 10.1865 2.06982 9.97998Q2.30273 9.77344 2.46094 9.54053Q2.61914 9.30762 2.61914 9Q2.61914 8.70117 2.46094 8.46387Q2.30273 8.22656 2.06543 8.02002Q1.82813 7.81348 1.55566 7.62012Q1.2832 7.42676 1.0459 7.21143Q0.808594 6.99609 0.650391 6.75Q0.492188 6.50391 0.492188 6.1875Q0.492188 6.0293 0.575684 5.7832Q0.65918 5.53711 0.791016 5.25586Q0.922851 4.97461 1.09424 4.68018Q1.26563 4.38574 1.43701 4.11768Q1.6084 3.84961 1.7666 3.62988Q1.9248 3.41016 2.03906 3.28711Q2.21484 3.09375 2.43896 2.98828Q2.66309 2.88281 2.91797 2.88281Q3.22559 2.88281 3.51563 2.99707Q3.80566 3.11133 4.0957 3.24756Q4.38574 3.38379 4.68018 3.49805Q4.97461 3.61231 5.28223 3.6123Q5.67773 3.6123 5.96338 3.37061Q6.24902 3.12891 6.31934 2.74219L6.63574 1.01953Q6.70605 0.650393 6.95654 0.413086Q7.20703 0.175783 7.57617 0.105469Q7.92773 0.0439472 8.28809 0.0219727Q8.64844 0 9 0Q9.36914 0 9.73828 0.0263672Q10.1074 0.0527344 10.4678 0.123047Q10.8369 0.193359 11.0742 0.430664Q11.3115 0.667969 11.3818 1.03711Q11.4258 1.24805 11.4609 1.46777L11.6016 2.31152Q11.6455 2.52246 11.6807 2.74219Q11.751 3.12012 12.041 3.36621Q12.3311 3.61231 12.7178 3.6123Q13.0254 3.6123 13.3242 3.49805Q13.5527 3.41016 13.7725 3.31348L14.0625 3.19043Q14.291 3.09375 14.5107 3.00586Q14.8096 2.8916 15.1172 2.8916Q15.3896 2.8916 15.605 3.00146Q15.8203 3.11133 15.9961 3.31348Q16.1103 3.44531 16.2642 3.66504Q16.418 3.88477 16.585 4.14844Q16.752 4.41211 16.9189 4.70654Q17.0859 5.00098 17.2134 5.27783Q17.3408 5.55469 17.4199 5.80078Q17.499 6.04688 17.499 6.21387Q17.499 6.53906 17.3408 6.78516Q17.1826 7.03125 16.9497 7.23779Q16.7168 7.44434 16.4399 7.62891Q16.1631 7.81348 15.9302 8.02002Q15.6973 8.22656 15.5391 8.45947Q15.3809 8.69238 15.3809 9Q15.3809 9.29883 15.5391 9.53613Q15.6973 9.77344 15.9346 9.97998Q16.1719 10.1865 16.4443 10.3799Q16.7168 10.5732 16.9541 10.7886Q17.1914 11.0039 17.3496 11.25Q17.5078 11.4961 17.5078 11.8125Q17.5078 11.9883 17.4243 12.23Q17.3408 12.4717 17.209 12.7529Q17.0771 13.0342 16.9058 13.3242Q16.7344 13.6143 16.563 13.8779Q16.3916 14.1416 16.229 14.3613Q16.0664 14.5811 15.9521 14.7129Q15.7764 14.9063 15.561 15.0117Q15.3457 15.1172 15.0908 15.1172Q14.8008 15.1172 14.4976 15.0029Q14.1943 14.8887 13.8955 14.7524Q13.5967 14.6162 13.2979 14.502Q12.999 14.3877 12.7178 14.3877Q12.3311 14.3877 12.1201 14.5459Q11.9092 14.7041 11.7949 14.9546Q11.6807 15.2051 11.6323 15.5083Q11.584 15.8115 11.5313 16.0928L11.3643 16.9805Q11.2939 17.3584 11.0479 17.5913Q10.8018 17.8242 10.4238 17.8945Q10.0723 17.9561 9.71631 17.978Q9.36035 18 9 18Q8.63086 18 8.26172 17.9736Q7.89258 17.9473 7.53223 17.877Q7.16309 17.8066 6.92578 17.5649Q6.68848 17.3232 6.61816 16.9541Q6.55664 16.6377 6.50391 16.3213L6.43359 15.8906Q6.38086 15.5742 6.31934 15.2578Q6.24902 14.8799 5.95898 14.6338Q5.66895 14.3877 5.28223 14.3877ZM10.2568 16.7871Q10.292 16.5938 10.3359 16.3081Q10.3799 16.0225 10.4326 15.7236Q10.4854 15.4248 10.5469 15.1523Q10.6084 14.8799 10.6699 14.7129Q10.916 14.0537 11.4609 13.6582Q12.0059 13.2627 12.7178 13.2627Q12.9551 13.2627 13.2671 13.3462Q13.5791 13.4297 13.9087 13.5439Q14.2383 13.6582 14.5459 13.7813Q14.8535 13.9043 15.0908 13.9922Q15.5039 13.5 15.8203 12.9507Q16.1367 12.4014 16.374 11.8125L16.374 11.8037L15.0293 10.6611Q14.6602 10.3535 14.458 9.91846Q14.2559 9.4834 14.2559 9Q14.2559 8.5166 14.4624 8.07715Q14.6689 7.6377 15.0381 7.33008L16.3652 6.22266L16.3652 6.21387Q16.3652 6.20508 16.3301 6.11279Q16.2949 6.02051 16.2861 6.01172Q16.0752 5.4668 15.7808 4.97021Q15.4863 4.47363 15.1172 4.0166L15.1084 4.0166L13.4561 4.61426Q13.1045 4.7373 12.7354 4.7373Q12.1377 4.7373 11.6367 4.44727Q11.2148 4.20996 10.938 3.81445Q10.6611 3.41895 10.5732 2.94434L10.2744 1.23047Q9.6416 1.125 9 1.125Q8.68359 1.125 8.36719 1.14697Q8.05078 1.16895 7.74316 1.21289Q7.66406 1.65235 7.59375 2.08301Q7.52344 2.51367 7.42676 2.94434Q7.34766 3.33105 7.1543 3.66064Q6.96094 3.99023 6.67969 4.22754Q6.39844 4.46484 6.04688 4.60107Q5.69531 4.7373 5.29102 4.7373Q4.89551 4.7373 4.54395 4.60547L4.53516 4.60547L2.91797 4.00781L2.90918 4.00781Q2.50488 4.50879 2.17969 5.04932Q1.85449 5.58984 1.62598 6.1875L1.62598 6.19629L2.9707 7.33887Q3.33984 7.64648 3.54199 8.08154Q3.74414 8.5166 3.74414 9Q3.74414 9.4834 3.5376 9.92285Q3.33105 10.3623 2.96191 10.6699L1.63477 11.7773L1.63477 11.7861Q1.63477 11.7949 1.66992 11.8872Q1.70508 11.9795 1.71387 11.9883Q1.9248 12.5332 2.21924 13.0298Q2.51367 13.5264 2.88281 13.9834L2.8916 13.9834L4.54395 13.3857Q4.89551 13.2627 5.26465 13.2627Q5.8623 13.2627 6.36328 13.5527Q6.78516 13.79 7.06201 14.1855Q7.33887 14.5811 7.42676 15.0557L7.72559 16.7695Q8.3584 16.875 9 16.875Q9.31641 16.875 9.63281 16.853Q9.94922 16.8311 10.2568 16.7871ZM5.625 9Q5.625 8.29688 5.88867 7.68164Q6.15234 7.06641 6.60938 6.60938Q7.06641 6.15234 7.68164 5.88867Q8.29687 5.625 9 5.625Q9.70312 5.625 10.3184 5.88867Q10.9336 6.15234 11.3906 6.60938Q11.8477 7.06641 12.1113 7.68164Q12.375 8.29688 12.375 9Q12.375 9.70313 12.1113 10.3184Q11.8477 10.9336 11.3906 11.3906Q10.9336 11.8477 10.3184 12.1113Q9.70312 12.375 9 12.375Q8.29687 12.375 7.68164 12.1113Q7.06641 11.8477 6.60938 11.3906Q6.15234 10.9336 5.88867 10.3184Q5.625 9.70313 5.625 9ZM11.25 9Q11.25 8.53418 11.0742 8.12549Q10.8984 7.7168 10.5908 7.40918Q10.2832 7.10156 9.87451 6.92578Q9.46582 6.75 9 6.75Q8.53418 6.75 8.12549 6.92578Q7.7168 7.10156 7.40918 7.40918Q7.10156 7.7168 6.92578 8.12549Q6.75 8.53418 6.75 9Q6.75 9.46582 6.92578 9.87451Q7.10156 10.2832 7.40918 10.5908Q7.7168 10.8984 8.12549 11.0742Q8.53418 11.25 9 11.25Q9.46582 11.25 9.87451 11.0742Q10.2832 10.8984 10.5908 10.5908Q10.8984 10.2832 11.0742 9.87451Q11.25 9.46582 11.25 9Z" />
  </g>
</svg>