<?xml version="1.0" encoding="utf-8"?>
<svg width="12px" height="9px" viewBox="0 0 12 9" version="1.1" xmlns:xlink="http://www.w3.org/1999/xlink" xmlns="http://www.w3.org/2000/svg">
  <desc>Created with Lunacy</desc>
  <path d="M4.78317 7.5994C4.92607 7.28667 4.99751 6.92256 4.99751 6.50707Q4.99751 5.98436 4.83112 5.60238Q4.66472 5.2204 4.39398 4.93559C4.21348 4.74572 4.0076 4.58153 3.77634 4.44304Q3.42945 4.23529 3.06845 4.06106C2.82779 3.9449 2.59183 3.83209 2.36056 3.72264Q2.01367 3.55845 1.74293 3.35741C1.56243 3.22338 1.41671 3.07148 1.30578 2.90171C1.19485 2.73194 1.13939 2.52867 1.13939 2.29188Q1.13939 1.71556 1.54551 1.37379Q1.95162 1.03202 2.81463 1.03202Q3.22075 1.03202 3.65507 1.10908C3.94461 1.16046 4.23416 1.23529 4.52371 1.33358L4.52371 0.261355Q4.33757 0.207744 4.12041 0.160834Q3.90325 0.113925 3.68045 0.0770663Q3.45765 0.0402085 3.24049 0.0201042Q3.02333 0 2.83719 0Q2.1152 3.72529e-09 1.59345 0.207744Q1.0717 0.415488 0.73891 0.753909Q0.406118 1.09233 0.248184 1.52792Q0.0902486 1.96351 0.0902486 2.41251Q0.0902485 2.92852 0.256644 3.3038Q0.42304 3.67908 0.693786 3.95719Q0.964532 4.23529 1.31142 4.43969C1.54269 4.57595 1.77865 4.70216 2.01931 4.81832Q2.38031 4.99255 2.7272 5.15674C2.95846 5.26619 3.16434 5.38682 3.34484 5.51861C3.52533 5.65041 3.67105 5.80007 3.78198 5.96761Q3.94837 6.21891 3.94837 6.57409Q3.94837 6.90246 3.84967 7.15711C3.78386 7.32688 3.67857 7.47096 3.5338 7.58935C3.38902 7.70774 3.20288 7.7971 2.97538 7.85741C2.74788 7.91772 2.47243 7.94788 2.14904 7.94788Q1.47782 7.94788 0.95043 7.84066C0.598837 7.76917 0.282027 7.67089 0 7.54579L0 8.69844C0.127852 8.73864 0.270746 8.77662 0.428681 8.81236C0.586616 8.8481 0.754892 8.87937 0.933509 8.90618Q1.20143 8.94639 1.49192 8.97319C1.68558 8.99107 1.88018 9 2.07572 9Q2.72438 9 3.26305 8.84587C3.62216 8.74311 3.92957 8.58786 4.18528 8.38012C4.44098 8.17238 4.64028 7.91214 4.78317 7.5994ZM10.8186 8.87935L11.8001 8.87935L11.4447 0.120605L10.2207 0.120605L9.17721 3.4177L8.86698 4.53014L8.54547 3.4177L7.55273 0.120605L6.36258 0.120605L6.00159 8.87935L6.9492 8.87935L7.07893 3.51152L7.10149 1.32016L7.44556 2.67384L8.48342 6.02455L9.17721 6.02455L10.2658 2.53982L10.6099 1.32016L10.6719 3.4177L10.8186 8.87935Z" id="SM" fill="#FFFFFF" fill-rule="evenodd" stroke="none" />
</svg>