<?xml version="1.0" encoding="utf-8"?>
<svg width="18px" height="18px" viewBox="0 0 18 18" version="1.1" xmlns:xlink="http://www.w3.org/1999/xlink" xmlns="http://www.w3.org/2000/svg">
  <desc>Created with Lunacy</desc>
  <g id="" fill="#FFFFFF">
    <path d="M18 9Q18 10.2393 17.6792 11.3906Q17.3584 12.542 16.7695 13.5396Q16.1807 14.5371 15.3589 15.3589Q14.5371 16.1807 13.5396 16.7695Q12.542 17.3584 11.3906 17.6792Q10.2393 18 9 18Q7.76074 18 6.60938 17.6792Q5.45801 17.3584 4.46045 16.7695Q3.46289 16.1807 2.64111 15.3589Q1.81934 14.5371 1.23047 13.5396Q0.641602 12.542 0.320801 11.3906Q0 10.2393 0 9Q0 7.76074 0.320801 6.60938Q0.641602 5.45801 1.23047 4.46045Q1.81934 3.46289 2.64111 2.64111Q3.46289 1.81934 4.46045 1.23047Q5.45801 0.641602 6.60938 0.320801Q7.76074 1.90735e-06 9 0Q10.2393 0 11.3906 0.320801Q12.542 0.641602 13.5396 1.23047Q14.5371 1.81934 15.3589 2.64111Q16.1807 3.46289 16.7695 4.46045Q17.3584 5.45801 17.6792 6.60938Q18 7.76074 18 9ZM3.16406 14.2822Q3.72656 14.9063 4.39453 15.3896Q5.0625 15.873 5.80957 16.2026Q6.55664 16.5322 7.36084 16.7036Q8.16504 16.875 9 16.875Q10.0986 16.875 11.1577 16.5762Q12.2168 16.2773 13.1484 15.6973Q12.9727 15.5303 12.8057 15.3281Q12.6387 15.126 12.5112 14.9063Q12.3838 14.6865 12.3091 14.4448Q12.2344 14.2031 12.2344 13.9482Q12.2344 13.5791 12.3794 13.2583Q12.5244 12.9375 12.7441 12.6694Q12.9639 12.4014 13.2231 12.1685Q13.4824 11.9355 13.7021 11.729Q13.9219 11.5225 14.0669 11.3379Q14.2119 11.1533 14.2119 10.9775Q14.2119 10.8193 14.0757 10.7007Q13.9395 10.582 13.79 10.582Q13.623 10.582 13.4604 10.6567Q13.2979 10.7314 13.1396 10.8237Q12.9814 10.916 12.8232 10.9907Q12.665 11.0654 12.5156 11.0654Q12.2256 11.0654 12.0498 10.894Q11.874 10.7227 11.8125 10.4502Q11.7686 10.2568 11.7378 9.97559Q11.707 9.69434 11.6631 9.4043Q11.6191 9.11426 11.562 8.85059Q11.5049 8.58691 11.417 8.42871Q11.1621 7.97168 10.8325 7.57178Q10.5029 7.17188 10.2217 6.73242Q10.125 6.57422 10.0767 6.43799Q10.0283 6.30176 10.0283 6.11719Q10.0283 5.86231 10.1382 5.65137Q10.248 5.44043 10.4326 5.26465Q10.6172 5.08887 10.8105 4.93066L11.0566 4.70215Q11.25 4.53516 11.4346 4.36816Q11.9355 3.90234 12.397 3.41016Q12.8584 2.91797 13.3066 2.4082Q12.3486 1.78418 11.25 1.45459Q10.1514 1.125 9 1.125Q8.92969 1.125 8.86377 1.125Q8.79785 1.125 8.72754 1.13379Q8.87695 1.39746 9.01758 1.74902Q9.1582 2.10059 9.26807 2.47412Q9.37793 2.84766 9.44385 3.22119Q9.50977 3.59473 9.50977 3.89355Q9.50977 4.30664 9.3999 4.70654Q9.29004 5.10645 9.06152 5.44922Q8.85937 5.74805 8.63525 5.94141Q8.41113 6.13477 8.14746 6.2666Q7.88379 6.39844 7.58936 6.48193Q7.29492 6.56543 6.96094 6.62695Q6.75879 6.6709 6.56104 6.75879Q6.36328 6.84668 6.24902 7.03125Q6.16992 7.1543 6.14355 7.30371Q6.11719 7.45313 6.11719 7.60254Q6.11719 7.88379 6.19189 8.15186Q6.2666 8.41992 6.35449 8.68359Q6.44238 8.94727 6.51709 9.21094Q6.5918 9.47461 6.5918 9.75586Q6.5918 10.2041 6.40283 10.4985Q6.21387 10.793 5.91504 10.9819Q5.61621 11.1709 5.24707 11.2808Q4.87793 11.3906 4.51758 11.4697Q4.35938 11.5049 4.19238 11.562Q4.02539 11.6191 3.88037 11.7114Q3.73535 11.8037 3.62549 11.9312Q3.51563 12.0586 3.48926 12.2432L3.16406 14.2822ZM1.125 9Q1.125 10.0635 1.40625 11.083Q1.6875 12.1025 2.22363 13.0166Q2.25879 12.832 2.28516 12.6475L2.32031 12.4014Q2.34668 12.2168 2.38184 12.0322Q2.45215 11.6631 2.63672 11.3862Q2.82129 11.1094 3.08496 10.9028Q3.34863 10.6963 3.66943 10.5645Q3.99023 10.4326 4.33301 10.3623Q4.44727 10.3359 4.64063 10.3008Q4.83398 10.2656 5.01855 10.1953Q5.20313 10.125 5.33496 10.0195Q5.4668 9.91406 5.4668 9.75586Q5.4668 9.6416 5.43164 9.49658Q5.39648 9.35156 5.35254 9.20654Q5.30859 9.06152 5.25586 8.9209Q5.20313 8.78027 5.16797 8.66602Q4.99219 8.13867 4.99219 7.60254Q4.99219 6.71484 5.47559 6.19629Q5.95898 5.67774 6.80273 5.51074Q7.16309 5.44043 7.45752 5.33057Q7.75195 5.2207 7.9585 5.03613Q8.16504 4.85156 8.2749 4.57471Q8.38476 4.29785 8.38477 3.88477Q8.38476 3.67383 8.33643 3.40576Q8.28809 3.1377 8.21338 2.86084Q8.13867 2.58398 8.04199 2.3291Q7.94531 2.07422 7.84863 1.88086Q7.78711 1.75781 7.7168 1.65234L7.62891 1.49414Q7.55859 1.37988 7.49707 1.26563Q6.1084 1.53809 4.94385 2.25Q3.7793 2.96191 2.92676 3.99023Q2.07422 5.01855 1.59961 6.30176Q1.125 7.58496 1.125 9ZM16.875 9Q16.875 8.15625 16.6992 7.33887Q16.5234 6.52148 16.1807 5.76123Q15.8379 5.00098 15.3413 4.32422Q14.8447 3.64746 14.2031 3.09375Q13.834 3.51563 13.4736 3.90674Q13.1133 4.29785 12.7397 4.67139Q12.3662 5.04492 11.9751 5.40527Q11.584 5.76563 11.1533 6.12598Q11.3027 6.30176 11.4346 6.49072Q11.5664 6.67969 11.6982 6.86426Q12.0322 7.33008 12.2212 7.62012Q12.4102 7.91016 12.52 8.18262Q12.6299 8.45508 12.6958 8.79785Q12.7617 9.14063 12.8496 9.70313Q13.0781 9.59766 13.3286 9.52734Q13.5791 9.45703 13.834 9.45703Q14.1328 9.45703 14.4053 9.58008Q14.6777 9.70313 14.8887 9.91406Q15.0996 10.125 15.2227 10.3975Q15.3457 10.6699 15.3457 10.9688Q15.3457 11.3115 15.2007 11.606Q15.0557 11.9004 14.8315 12.1597Q14.6074 12.4189 14.3525 12.6519Q14.0977 12.8848 13.8735 13.1001Q13.6494 13.3154 13.5044 13.5264Q13.3594 13.7373 13.3594 13.957Q13.3594 14.1064 13.4341 14.2559Q13.5088 14.4053 13.6143 14.5459Q13.7197 14.6865 13.8428 14.8096Q13.9658 14.9326 14.0713 15.0205Q14.7393 14.458 15.2578 13.7725Q15.7764 13.0869 16.1367 12.3179Q16.4971 11.5488 16.686 10.7139Q16.875 9.87891 16.875 9Z" />
  </g>
</svg>